<mxfile host="app.diagrams.net" agent="Mozilla/5.0 (Windows NT 10.0; Win64; x64) AppleWebKit/537.36 (KHTML, like Gecko) Chrome/127.0.0.0 Safari/537.36" version="24.7.7">
  <diagram name="Página-1" id="a-lQwerKe4t-IDfHSC5t">
    <mxGraphModel dx="1150" dy="910" grid="0" gridSize="10" guides="1" tooltips="1" connect="1" arrows="1" fold="1" page="0" pageScale="1" pageWidth="827" pageHeight="1169" math="0" shadow="0">
      <root>
        <mxCell id="0" />
        <mxCell id="1" parent="0" />
        <mxCell id="dsuRpbHQCwraH_goH_XU-1" value="" style="rounded=0;whiteSpace=wrap;html=1;" vertex="1" parent="1">
          <mxGeometry x="-198" y="-37" width="636" height="569" as="geometry" />
        </mxCell>
        <mxCell id="dsuRpbHQCwraH_goH_XU-2" value="" style="rounded=0;whiteSpace=wrap;html=1;" vertex="1" parent="1">
          <mxGeometry x="-198" y="-37" width="636" height="134" as="geometry" />
        </mxCell>
        <mxCell id="dsuRpbHQCwraH_goH_XU-3" value="" style="ellipse;whiteSpace=wrap;html=1;" vertex="1" parent="1">
          <mxGeometry x="-101" y="-18" width="109" height="101" as="geometry" />
        </mxCell>
        <mxCell id="dsuRpbHQCwraH_goH_XU-4" value="Otávio Lube" style="text;strokeColor=none;fillColor=none;html=1;align=center;verticalAlign=middle;whiteSpace=wrap;rounded=0;fontSize=16;" vertex="1" parent="1">
          <mxGeometry x="40" y="17.5" width="251" height="30" as="geometry" />
        </mxCell>
        <mxCell id="dsuRpbHQCwraH_goH_XU-5" value="" style="rounded=0;whiteSpace=wrap;html=1;" vertex="1" parent="1">
          <mxGeometry x="-198" y="97" width="557" height="35" as="geometry" />
        </mxCell>
        <mxCell id="dsuRpbHQCwraH_goH_XU-6" value="SOBRE" style="rounded=0;whiteSpace=wrap;html=1;" vertex="1" parent="1">
          <mxGeometry x="-198" y="97" width="159" height="35" as="geometry" />
        </mxCell>
        <mxCell id="dsuRpbHQCwraH_goH_XU-7" value="SERVIÇOS" style="rounded=0;whiteSpace=wrap;html=1;" vertex="1" parent="1">
          <mxGeometry x="-39" y="97" width="159" height="35" as="geometry" />
        </mxCell>
        <mxCell id="dsuRpbHQCwraH_goH_XU-8" value="PORTFÓLIO" style="rounded=0;whiteSpace=wrap;html=1;" vertex="1" parent="1">
          <mxGeometry x="120" y="97" width="159" height="35" as="geometry" />
        </mxCell>
        <mxCell id="dsuRpbHQCwraH_goH_XU-9" value="CONTATOS" style="rounded=0;whiteSpace=wrap;html=1;" vertex="1" parent="1">
          <mxGeometry x="279" y="97" width="159" height="35" as="geometry" />
        </mxCell>
        <mxCell id="dsuRpbHQCwraH_goH_XU-14" value="Reportagem" style="text;strokeColor=none;fillColor=none;html=1;align=center;verticalAlign=middle;whiteSpace=wrap;rounded=0;fontSize=21;fontStyle=1" vertex="1" parent="1">
          <mxGeometry x="160" y="161" width="127" height="30" as="geometry" />
        </mxCell>
        <mxCell id="dsuRpbHQCwraH_goH_XU-15" value="&lt;font style=&quot;font-size: 7px;&quot;&gt;Nesta imagem, Otávio Lube, especialista em Segurança da Informação, está sendo entrevistado ao vivo em um programa de TV. Ele está explicando sobre as medidas de segurança necessárias para proteger cartões de aproximação contra fraudes e usos indevidos. A entrevista acontece em um ambiente de escritório, e Otávio utiliza uma máquina de pagamento para demonstrar práticas seguras. A legenda da transmissão destaca a importância dos cuidados com cartões de aproximação, reforçando a mensagem de conscientização para o público.&lt;/font&gt;" style="text;strokeColor=none;fillColor=none;html=1;align=left;verticalAlign=middle;whiteSpace=wrap;rounded=0;fontSize=16;" vertex="1" parent="1">
          <mxGeometry x="163" y="198" width="235" height="166" as="geometry" />
        </mxCell>
        <mxCell id="dsuRpbHQCwraH_goH_XU-17" value="" style="shape=image;verticalLabelPosition=bottom;labelBackgroundColor=default;verticalAlign=top;aspect=fixed;imageAspect=0;image=data:image/jpeg,/9j/4AAQSkZJRgABAQAAAQABAAD/2wBDAAYEBQYFBAYGBQYHBwYIChAKCgkJChQODwwQFxQYGBcUFhYaHSUfGhsjHBYWICwgIyYnKSopGR8tMC0oMCUoKSj/2wBDAQcHBwoIChMKChMoGhYaKCgoKCgoKCgoKCgoKCgoKCgoKCgoKCgoKCgoKCgoKCgoKCgoKCgoKCgoKCgoKCgoKCj/wgARCAHBAyADASIAAhEBAxEB/8QAHAAAAQUBAQEAAAAAAAAAAAAAAgABAwQFBgcI/8QAGgEAAwEBAQEAAAAAAAAAAAAAAAECAwQFBv/aAAwDAQACEAMQAAABJWH8f1q5zoIFOQVRsyBVKdxArbTVY5kyqrMNLicqep6vlV3EtMhkhsjnIZHNjqsve2yqPYZzA1lBVeyhwqdxwSSGKvR2M6XmtI2WkUVuEIUTDeKxUFqWq+lpFZ7KarqyhVmtJlZ7CCuUyHEpnFCpmHGpI0xmgSdkiKswGZgrjYQ66ncIGsuFN7DJg1tmqjXUFNW0FV7SCs1pDoSyWQrXJrrM+3bnKw4deIWSGnAlTG1EKIxf5v6N07MF04JOAicTFKQpW7O4Ngb/AAvRz52bdzvU8xyYHL2IZgmsVtG56mzBNvkKioo1VkWBaDxzCYkQ2TuDZuplS8xRrHWQGEZCzBNUtUxbWnl6VwajKkaFqk3riO0qYg+ZoSS868VlkiVq1XU4S8SnHV5evZ2OO6O8dJo5tsBROwUSAUSBoLAjNq6FYVUWXFQcLxUki8dGw3Neq6BVixm3x22KrnpDAGbcWq1Osp0YDElEw/N/RkQuDsTAhMGnMUKdCSpEhHV886vkvR86rWcevkIEzLEsUzR7+F11xauxtrldhqpqxVN0QzEgRIhsQoCx9fHisxmHDeUWYTsJDnpX89zq2x2JMktV3NGWy2+dNWhpQtYQ6YX0KrNKgjkaIc9KpzeWkz5LYb2L+JdVdzNx290c2seNq6RI4vUpq8CegoZQHmuqgpcw/Wva5E+qIOcm32l5Fq/MOttZtia6OUTw6LdOzTisvO0s3oxqhPDWVXE3ZJcYu3zf0JoZAByTEEgiA2cUzkCoxejS4zMOp6/kQOz6ZgYSjnMTc6HTZWrpFx66UztWdOyopLkk73MA20MjpyMt8t0/EZ3Bby5eXuvV7BLVQXc5VrZ2xl7+dt62dqbYiiapZ2cEnQRjMgjdMCSqTVLEuZnN0V4LcE3WebUHnTa9aKl6nhuu6Oc5JS3xAwjCdMmnZMEjM4QzhTHfWOlW0+Gwbx86Q+jk5vYDesZJM3qEVUpmaF5FWlzpLI1Gm7jOPzn0CkCQGMUCEmE7EzVgHZUuX6jzjp56tCzV9PzUnZy0scicstfVuOhuVrWsIqpy5mhYVh65NWXrqlakpmFp6bIvcR12XN8tYtth0VzlSs6licenib3O68nTkVjfOiNwdIphecVDQVtBphlk4EnHTaLl6asF2zj0c7W6VBAOlXVZBXo3NDRqnUdnWpzd3E2ZrMnXmMalAYBKnQDDO6eY94ystazJ5ti04AjiFNNXK506bVh2Arxk2461pM0DAzOPzH0jkLg0ooHSQnQkyQgZGf570nMen58Mbt1cpM4CJxYcvT8x1dzoT1p7z5uSm3P335MxC2Z+fVR0h81ZrPfkyZaz0yzCDQwdXKlk8hRURyk5CZE1Z5XrOea0N7N0tszEY3M4xuwkMgEwMBgmQe1Dd8v1bEkR8vXlcx2vNb89sLYXGZX2qtLDzugyKm1o87J083RjzxXHQT8uA+hHnyH0pclOn0i5YU+gLEqy+nXLjnfVLlGH1g8m1rsR49VPZtyQj6yPlAT6k+VBPqg5hlXfJLw/UdO4OzoHTEAu8TVgDyKniKJw+x5IpjqFFIA0yNO10uHuNz2M6worvmDnrez9JneakxasVrFToSxS3zm7OErOnELp5bkJtOQkFwZDqBetXo01moeks4kaCqHcSvA7VtVUzctZ17yvVvvzlnDp2a6ml4se1z++CsQaJU/J9nxo+drWa/TzkncqIZGYFiGwKtPEapJId7Pv0KzTO06Ok4MnTSsRX2qgzVgZEKadmTZJg9AdN4/aTiwGnECSQOIpqxxHaeWdXNBCQej5zmz0gZrEUNoylxKVDCOaNAjI4D61hdVz9HmOf6z5fpVSxXsbZaMkcmnMbs45kiqIU7Q3MDachILxgdxmZe5UHmjqMnjnroM4tBNUXvO1nvfIKV3n+95uqlT7jK4+99Rpcrg57oc+5jvZO0NcB2GfUcRHdrdWCkaSqFSm1WkI2qbSxpiMqVWc/Rz6zZJp1JI0gTkxp4mEhSBGEgRpMNxSR6AKbx+1zEwSTjEhQkJRNZvn3Rc36nmizLo55HEWjvwnlb2Z5AFr2mnz0vUVIvDt6M0Xtamdp8vTBh9DE35FYtVfQ5dEwPXlkcSHNJGdRGztDRM7ROzheOM6itWnrsdnYEkwE4phoXE7izOV9T8o6rk7PQaXI7PJ39CNG5nUmXew6Q6OI957RPYmua5H0PF6MecYYu3ltvkDWeseNOFgKIp3mppPbz7OSK6qSC2EDlTnTJFybP0MtqwA+uBPGrTuzoTOmekMT/Oe4MouISTA6JgCGxzmmfG1yj9fyU4vScXFPWuZTy95VTTt7WDuZ3t147+WuXLdhi9a7WtY7RYOxztLin67le/lukJb8sjs6c7qas4GdoaJiYnThcMCqKsE8AMkzEmQJ2TCdnB2dVPHm03PtLqx7vP2TbfD6eOuhk1c21aWTLpl6bYwdrn6YhnsS+T5fpeb9fzRgsrowoSX0LFbVrp1FIEvRzdLNkYTkagV11WeVplUGpn6XP00CGbp467m+2caNgZ3SfopRt8r9JI8ZgbOgZ2cG897ny3t4hjce/hdxQ3TOi/ZoINSvnhL6Hf4npYvr9Slc4u+jPw/cubFzLvyKvdiVRZs/P7ZY7svR84pBgS0pGmuKiSikTOx3ZwtuB1FSGWBpM6BOzgkmYSqV89NZVbWkcbap3s2ppI8d3is5yuSKoDJblXtFW1qwXubrCwNNLgqiH3fKTCbl0yB3FAUZshZWsKMp5q8N3YZozhIJ9HM1OftzJYJuvz2SbXNyFgd0w/QSdfKfSMYmDEDpyiIi5jitLM9fyhTPpmmSBzGRp3c9oqvZHDSXVzbMX6RapaPn+hg6zmysdGLTDpQ5+snZ5xh6cZmsSdXJCxspvnTltRpKKdxIHdkFk4zqKsMkTTskDuxMCnPlY6swDnrJuc5v9OOdoFU6spM+/V5tY8y5nY6V5oHmu03/N9PLf0u55dQi/RuP5/X7OV0l28zJiBnSYkkCSZDxGAR0tCnFQNAeTNRlZb1MrU5ezKlgk6/PNmWsWm6izK4seviqdUJ18p9RHIjAGlEBo6PG65cmBD6vlpMgSTgRttaRmLcrWY7aixuh0+n0HF1Wb8Nnl6wo3s0OPi2+c7OOxnxUdc5t7ltC56RMtsIwisTNcs22nppKmnZxO4uixJDJUZlHRqsheZ6Q7y3sdPO6npXneW1aExotaIx93NPXjfQsAZOYuc38Dn1F5w5tIDJxiScLOjDN24pnHSE6Q0kgSTIcXZgukAxThLwJJG59LElq3WeVo0L3N3ULc+30cHPUdjJ6M+/2MW/MT5tm2ig7r5j6dGzJkzMBeW935138UTO3ZxuzsCMJgb17yz3nfl8iOaDPaYCkVWOg5OPHb0uTgui4+zWzb2TlpUoWA6Ofkc7ruQ6OdrVK1rn1kVdXlLCMUqG9R0kaCSukmJJJnCcwOopwyxVL2IOmCfYx+v4+vjtLzbqW8at7B5xrnk5lrP7sDlCWnMQi5yKrHw9DibQwRMAyx3rV1J+7ERTgkkCZxQ6QsdJwZnYEEkcurR1srKtGzk6cKpdp3MO2fa57K14trNpDa9Fm83kR6Xc5DptcHKMvmPpzdnAHQNcRzM9f1/LSSuEkgUgk1f2cJtctazUuxcrxOgnYxwtLCF7R5089NyvmUc7tUR0tebCCxV0V9U3CarOSoeiwd8mxjanKD2D59xdC/Oprpj5VM6Ued0maUedoC7HuvFrfN0b+d0kDNfyhqWmezXs1O7GzNFLSOhdx86qyRycWydnBmJgHXz9Tqhkh3zZ0wOkwOBCDgcYSJmQndAgNhjRvvBky602SybKzcui7l2GedVplNV1Zdl/d5iXTP0M45PnveISSbc/0Hn3Rhgsl6fnOjjEkkM2MGj08/qLkxMZInOICcGCVoSHNVsIVB7E2Wj0NvBMs+vYr7CT2URyyqLDayNGp2OU18BoyIkBHYjFWeXSHnH3Ojnp57s9zwasCp9Vtjz8EuHU1t3B39U0QrWbk0EtJ8Lawsbchfl0JxcCZ0F20Jd+KB2pJJISZmOLsDxlGExCyCZ2BxSBBJFNV048OrszJmwMBiDBKoRZciiMPSpIj8T2EycK/lfYcZ6XAkpenmjYhBSxWAFDt3M95iQ0RkEEVmuEjEIwhsRjJq4A2lV0OfWLn9zE6MYIrQ3MNmMpJHB5p5q71JVygpXhrDnUzh2yqbvaUnB2w4s+ctufq9CHTxyTZnN9XNq5DV98luU7FMIxKlalhkqQxdbI5tSdlhoTsgKWG3c30g7sWdkDszA6ZAmdgUM0KJnZATiwSMBAMErKq4TV+PR2T50LOKaZMDi7ApIblz6QDP4fsuyy7nh8529fy1Zrzua6SBWIZ2pekrWal3F0NJEA5K7gOeKWEDjdDGGdhFsYezlpWwuoy5dWMl28opkJyGRMaWjmMCCxbDO2bSyvoug4TveDtr1ehPDpxqC3NFSw9XmdMsfMHX9XzMq/T2dJr0btdkcsUycs0MtTXy9DP5NiTvladnBaOdsb5uBD1ZuzshmcQTsgSZgUMlcdt3cQInBiYAd43Tjq2qfPo5Rlz2mTJsmEJBFga9Rva5+hGn8H224rtfKuvmrJP6HBYr2K4Mk4S6FTeuZyAxIiSbOzDGJSAFa1WATrSDlcXEBFCPQ0MPQyrLramdrFU6Cc6cmSQXQqXw04LtMBeOZUtPBpTfew87u46ZUk2DcdHhE22UPrXlXdZdWdg9LynRg0Bx9POMouixJHK5pUbtbl2Ty2s3RW7jJtr59/rzjSW0JnFCZIEyQIXEGrT1pc02bIPTLPtNSARsjaUQjpaFXKqzsuW3EhGLGbULW9JmHb159I6lnb573cLz/cw/U85Ey2wkidgYhsBo6tSXSJijqJ6RVLKEyYYSC4BXkiCB3hbtnBZSBhccFgRFo50ss1iwbsN55dnREJq8TDlIYU5AhiZLJW6BETzDFVagdILKh7U504zr9i7j1c3znonCb5ZdF63o+cZQSp2Z4J2q/rvmXpXDrt3PP87G+98k0cTM6K5h9HXZh4/oba4+dNfz/Q42SapdMgQEgigvmPOktklXjuplF7UIyEJEHAMkuEdKPmqg96IK1hulueZ7eC9U6Etw6nAp2uV+e9/kBY/W8pkTNMJghXamizTEVSKCtrg7p0GhIaEowihnhAI5Kw5LOboNETgg40INLXIaFQCGYDByjQWRgiZJVXTXOTuTYOZsY82dF0uy43Uo6fWyej4/QYopo0DmuowtMeJhvZ/q+apa5VOlLEVSMkXUcW3MP0ViXm1NvkZue1odRj1R3NLOx3yOa7WLXHhh6Or1c2OnXocjOmSTizDZnCNiYEmZChkFMWeJPXscw3JfX2eJNHcHwEifdjxAD7eXgQufUPNO1858/vKRi7eFmMQADjVWNbN32qVTXptR6WTqMRuKClGMckUYNSwimNSs1xnZrgLQGFDmjrzCCesYSRbmvL4hdmIcfD3ABwUvaWhZOrKbQV5kjAv6Ttea2+vRWRttbx6NrTyNHn3l5LqpaPIc30Wh6HBwz9/ELmW7BaR5x2xWeTbLm1Xm+b0NfSm5mmLHpqBoqVUHRzgwpZucHRd4/b8knBNJhYciBA6jZErCgESAJK0lbNxSRyc9J0IFdqyosVEkPCao0uckbLc3Ul5RimAGawq0r5OnGKO5r3K8rIoTsCqhoVKnRvwXhDHU0h58enGgSvV2cnrZ3TUs69pV5IcDseTH2PdcJqy+lo0knujy7NdUfOX09UcKAOjflBDppceqGnNmRM6GbmbsvTPn7TR6FHDDqpeM0g3GxYg6EcQB9PkljC6aDNmTls5QM3Y8gw1y5qYWje5qQOq+fvoH5yKstVs9mLshadhYFHI4QR20nSKwkQP0O+54mn6n5hiVpL2tFc2ujYOdbohDn9axKyELia4izDPjskcDS9T8r+kU+LbrMvxe2lFp53RnSkvn63FVXR8YnaWgTG4X2nxGKjT64sZzmTrI98OdRbQYaj6YOdTdEHPKA2tO6OdJqpZY9RZMLNx+e6IQrl7jNoq2cjaWJvpxqFwv1z5AOrZ8Rm0sLYEFmmQ7KhzQ1m5PqGrCpyy5nLIDVZZYaqyLQXYs6yF5V+ZZ13F9dztqKHs8O5yB7XGawmd6kI56JRKGUrev8ANXMl1G1xMcvtOFaon1NnkTH1nONlBqPkoWusdBsvisCi7Ojz9HPQTR74R/R/zh9HxVBa0vzXdiRb8Gk4ck7fTef0POadCap1dV6nS8Y9x8OT3eLn6HRWT5+3Ltz89sI0N/zusHa4le4HW+Zx9HStPyQtN2VLET0ep53KDusDCcOl5aHo2pbHGTCg7/FzE+u3/MjVTXsY6n0XN4OymfQZuI1t3+Xrh2g4KR2fM5bj1+r88AOxj5moHpGLgQhsWMygjf6Dg7QdZj83YD0DP4K2D6mvzA+7weVnRb183KZQSWmagnaiB5lVZuxlbXJ06YwNx/QDHKyKqtHpzZK14teHMacNPPhaZmQvIIdONHH5OsK5h1csHrnkPrXmdegol5HXbsNN1YtQuVpcsrz6LIUK4t5assXpctu1lwevx7652qHWRZUI9g+bui2T5l0+kVXER0tbFejdlwJUbSrY6OhXOKlrTc+4dMfMzJ71Vc8LqlmQj2FzBNdI+KI91c8YbqwbSNRZ+aHRLnGDpWHADoRw4GdK3MSB0a5rXReWRRDpli7CZLEgpdBDkQtdIsLqodJXVLpK6gpDeQZ730FDg/S/OaM84dSfQzmnh5vbgztWPo8e/Xt046K1CRdXhRNIiYmlYQhIDYQ2KYx9X879WpRPMpiJ5kzl69XB59+nl5OZPqZeWnVdC+OFzvQ4kW2evZ51h9Cucpj62TknF1a5GZnWwcuKOin5ipS7QOVNPrB47fqNcCmvKtUrc7F9ZJx9hPrYuVAnudTzbbb6zCCizTl4s5Orl5AWbt/kCDp5+USOsh5y1RvQ81Bo+pPgz5te2zeddrtpOHBHoa5STqy6ibkWa6YuXQ+tg5dg6mbkGDsC450dguPQdiuOQdguOAfonB2ecxruLnnegRujhnl16pZ1TPrv0gWvmkgZySFASaQIGJDhpzsV3HXV7PZyp0Thncg4TD6rkeXpCWuM3Zt13A4Z7Q6D6EYqzsA44pXTY2cHRRtTBJEDU7tELEkUoV5Gqi0VnJzbrM4NLdgh1xGJm/fybtxPQtwizhBgmQmEZxSgAkguTxLVVa1mrVUiF+PYnZgkYSDSs0b3ZimdrlJMCEhG6dAzpwZOwJkgYSFEVK/Twuto59nN22d3DCTJgnYEyQGcZMeGYBAySuhppOvV3S6+InSAnSDj+QS5emFkprUJIdt0gGBJOGFIDjSGJpAcSQp40mPQSCyaQR1kgSSJlBJq1Ilm84Uh7l5LSGgSc4zJAciQQTJA8aTVskrK1VK7pOlx6oUgd0gu6KXXi4paSkkCZIbpIE6QJkgZJAwJIGoljRRpY3bNKs2BIEkk2SQOkmiZJr//xAAwEAABAwIEBQMFAAMBAQEAAAABAAIDBBEFEBITFCAhMTIVIkEGFiMwMyQ1QjQ2QP/aAAgBAQABBQLYhWxCuHi1bEN9iFbEK2IVsRLYhUdPDfh4Vw8C4aBcPAjTwrh4ViG2apwaG2CAF+iaAmtatLVDC17+HiWxEtiJbES2IVsRLZhWxCtiFbEK2oVswqeGJbUa2o1tMRiYtti22IRxp+hqiZG4bMS2IlsRLYiWxEtiJbES2IlsRLh4lw8K4eFcPCuHhXDwrh4Vw8K2IghBCtiBbEC2IFsQLYhWxCtiFbEK4eFGmhs2CFGCG2xAtiBbEK2IVsQrYhWxCuHhWxCuHiTIIiuGhQpYUylgXBwJlHTgPpacnhoFw0C4eBcPAuHgz7K4yKCt0+WeSchkB0neI4j1Mxy+E3sCu6w5nXmstKsrBWC0hVfRXV1dHMKdUv6bq6uFqC1BagtbVrajOxqNQxCZtwbrquv6HBd2n9UfcJgTewu4uFmaUWohHJ/QDktkF2V7qP8AoMwrrFpfxJ5u5FDugmKmZohV1ccl1fkuqxX5mqdUn6bKWDUnsLSwWEbiu6MZ1SRp9ODHNRyQhRyOamvuLq6vzdU4EG9+aysrLSmx/kEaaAAogp3Iopzgi4LUE46nZfCOfVfDPO3LiEm5UyGzUMmZBUrQ6UaXC3t2rxmE21zMTahNe089dztVQqQgHW1bgWpXWpbi3Qt8LfRqQmyNlDYg1xYHqJu2t193SOcnzFjZZpapzJGLiJdyKW7Qbfoundg7St+NcREjUxLi4lxca4qNcUxCqat8KN+o9g3UVHdaTZ0blIwpzCi1EdQAxseXTmK+R/S+Vsql+3Tqc9V8JvYIKhYtChcGNE2hOeCg4gGNpOyxBtkBy1jrq+Zzb2qVCrKyAcE0lWR5NAWwEGOCsVfOsF6aTQ6MtaI3yBhpXkyRWKIshY8twroqRoc2SMtdoctt623JsbkI3psL02CRNgkUTHMPxHCNMTRdH+UgunsCLGrS1TkNa1zy7IWy6IgX+br4b58mMyWCcbnkCaLmFunOy6q/IMrK2VcLHM5t7VPeh6m37j7VUVZaySpleL2OvJkhth872ScQ8hsxCaQ5WVlKzUhA20bNObvaenJfK6BT/FpuI5PbEbInoX+2VwT0chZxs3Lugj1QvmeoQHvGQ7XVbJuVMhs1DJvcZUTNUo87851IveEJ7Fro3utYANtiEv59xRRySteyRi1OKhilla7UyRg9tT3oh1/RdX5KisDU+okKkkc9Fd12TGOctIasLe2OeRjHjh2JsQYmn9A9pvzXXcQn2tdZCRa+kpurWJKKk6N6NG4xHsgcrIr47Zf92Xx3VbJs0ylPXNqGVC2zOx3FrRetZQkQI5C0FbLEIwEHFVxvVpl71br1MXtpwGS07mGGeMeyqVH3/SQuqBVRdwe2we0uJZZELSSqakun2RjWksdSzCaPI6SgRfoumXzk4XD5hCOOjXHsXqDVx4XqC48oVzlSv1N1JrludHPWoFEhXU93qZj5HQ05Egz+SrIrtkPPIdVjUvVE8zBqdELKy0hWCIC9qsFYK2V1fkrf/UoXhkkxaZNz/Hj4YNlk3JYusVQ67oHaAatoXGtXHBccuOQrimVLHIckh0tlPSbvaym6pkRc6OmDGzdURpJTgqI7Usm1IxrQDLTRLh3XbqaMj3zljEjW0sBBooVwMa4GNCiiTaaIIRsCb0kLSXBqawaSArLT1cbNYLNz753yPYZN8sgVWSbtS89EMh3yoWXkj8n9GiRalqWpalqWpa1rWorWVuFCS6rrFaQtIWlaVpUcSA9s39IWBy0C/Dxo00S4aJGCJoibG5aGKwyvlO732Nth4PCSuRoymtbCrFydH1dGtBTuhBUTtTeS1kHJ3cchFjfO6utQRcNe81bwQnunSddzpvdQ/W66utSvbIcnZDL5PdV821Sp/fMZ0Y0wRedT/EFCQhb7kKhCdq3GoPWpXCvm42Gtz32VlZaUGZN/nVdJsO3BGLq61BamouAWoISAq6ur5RU26YYWsFhlXQFzIW+7b6bfR8aLSA9vtPRUrigSUzq1uq7gbkDbWrrdEq6upZC0nobK2XRdE+2lzgVcJrgE5wvqatxgQlZfiGLiI1xUed8gMuyHdHz7OWNSe4nkObOroP5Q+dV/Dm1EKF5JugVcq5QNw0ESczf51ML3zUQcyFd1ttu1oamgNWloJsV05KX+YKGUvgW+5hGg9USAnEFSNN5vKOTbXGoVi41caVxxXHOQqy4cY9OrH24uRcXIo5XPBqZCuIkXESLfkW9Itx63HLWUHFAlO75fHKV3XxyfJ7noqqXeqHcnzlCFB/Jk7GPnk1QwUT50cPnBlo54+WDyQzapOdvgWodFdXV1qWpXyuVqRsCdNqZv4whm+FrlKwwnULyusYI9sbZWJs2pR2Q5Y/BHtlT+P6NJydz/AB8jlv1sievzikm3SI5lDJrSVHpaKd1O5GeMIVDZaZk7mOdUPKhxGVirZGyvzg80M2p/PH4KY2WsrWtS1IFDO+dJOxjTO1qdX6nR1LwmStfk8amyDSqRmtxeWSNJIxeTXVHpk1WVutlZMH4+Sn8OdveR3teb/o+PjO3I7LG5dU55HZNbdD25k35GXLpKGlrIK2klo5MoPNDNifzx+CrZBGuKauJC4oJ1Rdraiw4yy44LjguOC44LjlHPxBpzJO6WllibBNVOULCSB0VUC2TDfFw1zyEMbVNOt/kmoLSrKyHhyU/hzhSFXzAvzA9EO9sjlZFSHS2eQyzHIZHvHGXpnRFW6aVbIBabnCqAMYOinY2oiqYXQTKDzQzZ3fzx+CnAK0tWkLS1WCsFpCsFpC0haQrBQSbU+GMEkZ7bADoxYL5q2qjfpl1AKaXeM0eoTxlrkBnbJvgRyQ/zzC6ZNF1axPIDYcoyCCt1RyeViz9mkRyGUbdRe6zWC6DU1vQtQp3OApgEIFDEA6mf0RWK0e/CqfzQzZ3fzx+Cn/Y/yweMx4cezZLEO6aspn3QNnudcRBPaqiLUnu23hwtuBCVq3wt4ISjb3gt0LdC3VA+8O8t1q1hayt1bqbL1MvVGRbhW4VuFbhWsrWVrOXygrocjljc2uqPIVAPa1upM8bdVBGNRgsDHZaVpsqSOzVZPftjEGtFTT+aGbO7hzs8FP8Ask70eKPEXqkrlTvY9kLkE5ykeNUkihmuoE9SNuqukbKth8D3BElXKumn8HJT/wDnzvmF8/HznZW5PkZnInqLqd+3FI8veeWltoa9jQC0tTe8Bs5p1pzBchNCg7ZVx1GW+uDzQzj8jqvzM8VN3/W/vGmg2ZrbHh1RrL32DpwVUSe577qCT30rrxvyLViQtCiAU6JFjggLQclP/DnHdMbqcWEK3OBkUchkFjcmmHmi/nAzWm+1a7mNRdmprdQMaAVP4lPPSpbKVUUImiiaWSoZxeUnO3xU3f8AWTZ19SpJwyNtU3TNLonNTqZJJdSPWu5jKw55LHJqssYd70ewV8jEwowFFpGUH8CguiDwEZLpzroI/wBD2j7nk+cgeiujkemZ6rFZd2rPNTeXgXvGncCjddU5UbdSebRi7S5l1EbZEJzVM1VlI2ZiC+VD5ykauZvipu/6Rl0uHByCBKciS1OkunO6alCC59IzRGR0jyqpN2oTu3LdFoco26YjzBW/K7tF3PI7v+gZVMmxCTcnmidpfI+7tXSyifZ0RUI0xSuOzHiUsTqeobUxXs5jrhOUkmlVFa5z8j0TCXug85xY8zfFT9+d0i3Co5QUU4XMLHKaPSIj0k6scdK1q6jbqdSU+2ILKyAVfLs0iJsup/S6xTmcoTf6O8Y/0fCbkEDcAolY7LZvOE4Zd0yNQu/JTyBzGv0p2DQvVFTinhkf+Vj02UWdIFUzWRfqkWm5c3pGA1U/9KjoeZvZTd8wjlK9E5XUZvFFSro0eQ0+42Kkcio+ppKOwjbZRo9BVYnBAJaqWqP6yinixvyR+b/FnIGXGhWy7L4GYV8q+beqTzjLUF01XVMNyWBtmhl06OWJNc60j/yF+kGSyfLYSyXEfcMQaFI8NTQonO3HucTzN7KbuOWR2kOORKHudfJ5uQbAhFrrzdEFZRVEsaZiU4XqlQpKmaVDqQLDL55ygiph7bq+QUX9JPAIHOkoGzU5woI4UEcLCLFpWlaFoQYVpWIO2aU/oaCUU4IdE02WF02sRMsrIqQqZ7hIJOskyfKVuKCUOblpF5SVubLadwczmb2VZM2J3Fxrio1xUaFTEp6WWGCV1yiiVS21hOPQdyrI9p+sjQiFbkgbd2Y/XJ1YgmR6htFRf1l/nFEZE2kkJlpnx5Yf0p9SLk2N4ql8L4QWkWx6X38+G0Lq2Qx7EkjGLZ6Op+tNh8YEcYYGZFSqeMPTw6MvlTnXQVM60mUry1zH6myOu6i7czOyqGgv22LaYtliwuijfLT4jLJXYlg7ZlNG+F5TGGR5po2K9kT0ZnO6ze7uaIWZke/7Jm6XNVKbN1KL+0388Pvoa918Q81R/wANSBu50Y5Dl0R8ayXeqOVvU/P07TbNAej8tKiq5IlS1ccyAycnmyeVIzUKiMsN18sNlGbsnvbyT7hPCou3Mzsp/LKGN0slS409JQw2b9QYhJTPi2MVocRweanNPDtCVPKcmZ1T+reZgu795UwuxU/goP6z/wA6D+TNOnEP7fFO8CDX1hN5vyNqV2yK+Vik21SvtzN6CjhM9TG0MbWNArgMz1VlBWzRKnxCKROUyurqqa2QSDS66jPWOZgD5GuTXtAeQU141Uh9vM3spvPLA3QiWjoKqGsADRi8+/iH0rLlis8PFPfdOyGTzZpOp3NTjM87ub5IT/KDzPan/pUfzpn6InSv1l7idRW69Cd6wd7t2okEsY6jkHbG5tc/N8UUj4pvWKoFshlQvy26qCqkhXFsenlPdZr3lxdE1z5GBrm92ouRcnElRmypWkMldoj4xy4wrjFxa4tCrXGJ1TqO8VvHVUnTJhmN2WoSRU0tFFhf0062I41XcJTo9F/0hlVO9o52Czf0u78xUrLkRuVnqAEPn6siOljgdVirFWQVK6zeIi229l2VsnuDI537kvKEe7C3SWKni9mmy6q6ugiiu2TXWVRPuKLUnFqqHfk3CtwrWUHLWEJAFTTunVV/Bx63V1fkatXtaby1XnCxRV01FJIyjxQUOHemTYhWPq6qEF7n9h5DOoN380Qu/I/oPlztOlbrEJo7VTw9qs5aXLUVqKuUC5a3LW6wXyguixqXRT5BHMZBUzC49k5XV0UCrodywEA2M7janYwA03sLbCbyzaFpWlUHaZmuJ7bGyDVpCLMrJqKpIZJ56hhbM46W0MW4+vP5quvqJqZUjdMTk3u3Ip5vJzQDp+r/AK539s7rUtSurhaluISI9/kIHPF5tyqyHQZuFso2lzo2BjcnJ/TO9iCu7CNRqItuRvk92mJzmlS+WTW8lNIIxUzh0Q6uzvlR0U1W9v0+5MwSmYnyQUMDnl77GWVjQxuI/wBJeyDtDHPumd25P7c7RYI/p/653Hr+kpvfkF1VS7UDjqdyxi739XBt1TRbYR7BFPNzkV8hyMg0lzpHQaga+Rxjun5BdVcq5WooHo9M8rORuimrDsH1prWxsmnIMj53qZxdK9yjpW0seoKuN5J/GIan904AJncZS+A5oxd/6z5czjk79JTPL5HJjk1mZRi7j1OUeVJF0yKCf2b5FfJThcdlIbqnF1H0Nb/EDUi1aFoQYtK0laSjcIodDrKugxzlhmHGFMkT5RYy6nV821HFhk7o/SnB+JNexusokp6p4i0Hoj1Uec/8xzU49yd+o+VlbK6vke6eM7I8zfJsZcMj3uq6XeqcmnTFmfa2nZreBYcknYeTuzu+RFwoDofIz2yt1RWXQhdF0QsuiDLqTyKsg3UYKeNqw8MdLJ1Wl1nB7lFTljZcNMjy+djKqpdG2qqzOMoWAB8qL75R9hlUfzHNTj2fr/7zshl8p36Aih5M7L5WJS7VLnL3yHfyfCwMbm42W4UZLhp6pyaUUE4XQKpZQraJ6yHbkaiFZWQCAT37bS+67qODUo9DGyDpRyGOZpBa0NItZYnPeXT7ZqhzFiNW2SnVJh9RVRvY5jx4uYiFZM7ZVPgOZos0/rf3HUchKuroo/p+WD25ALG5ry5Qj3HOPvSM1SIIoZnoB2PY5A3zcLprrrUnt3YrWMjy1b5QnXELiE+Rr0DGoo2gH2uHleyuqSv2n+pGM8fUgzybipcUljD8SYWkxuaGNWHWbQ41C3iC9F5ReVrTDfIKq8RysF3L5/U5B1kJArg5WVlpVsnjrZWVlZWPK09F8vIayd+5Ll4xZsHthbojTeV6CcigjyOCY64gk0uqm6ZZBqZy07LkWvI3q1EXT+iN1AywjcCKiILbDncO1bLUIgsNl/xMRvJFoKLXhXOUeQVT2aEGkplNM9DCqwhzSx1OPeegH65F1WhBivZauWUXVirOXuXuVze5Tbl0dJM53AyXGGSWvljE2ilyHeQ+7Id6dlyUFdA8hydk7yJQ7HtkfaQVbfYRYys92laUync5RQxNROpHz13TexJCLiVCNRsr6U+YtEP9L3TjYU8b5VS0z4YnwuepGaHOKe6+Te6HbbM9TDg9HEGUkDEGgKvJa3EJRVVuFUcRL8PikM1BLGnAt/U5RhOf127jaC2wEAF1WvInlj6qyssNfus4WJCnYEcsXl3KrmjCaLRArsDdRi3MUU7t/wAtKHY5Wuuxa4tNV7ns0kBgCu1p1pzrSRI+T1e41IXJhjs09F7VI67sLw81EfBUrFwNJqa1jFcWcRpxI2lc9FXTMvjDiwYjLjdO1S/UDruxitkT5p6g07fyMq9ieKsjeg8FPjZI2qg2nc1kAFYLSFYDkc1dQujhbSgNaNBULgqhcLOEYJEI3tUOHOeDhJVFRS08gHRfFTJtQuOp3NAOodYDvI7pF7iU3kKKOQ7fDDdEJqun9UETeO/tL/Z3Hkx/dnhfIiyeQTRt9+4CnC6qJAxE9cLxExU3GNead28+oOkh/R7vbVs3Ac4ygimNIDpbLdWsqCmJUj2tftuJpYXTVHDuaewqYw9slNI1FjgtK0qyt+orsroXa4YjVhDFalDFpk3FyvV2L1iJetRr1uNDGWBeuR5Y1LZnM3qafzLkTYeZibpbmEcjkUXWW3qLeiOZQ7nsE5AdI/BMNk54Reu5pMPAVXTiUatLpJNDCwPDffJGA0YNTslLvwPnZdRt6SR9Hi0lS3TIco/Jqf2oqjQ+VjJAyFjVpTZBqqIXsfS08k7KGkbAnWUhQbdPZeEdRWRWZf8AQcyrooq9k51zybZW0tNkW2Nl8V829Ujmb0bHD+N+po1dKa2ouQ65DI8hUg9zEDqF8yV8r5lyafbdO7lRRmQ0zYYWiWNb7VNszN4CPUDT0w8ZDKVhmI8JJJWcRLTyB7AGNDx7JSTJVu1SHKPyapPG+l7pXuo3ukfFTlsYbttUOmeZhaGmSyMi7oJ3ZvYjXTfoKvy/DsrZXya7pqUpuZMsRm2qVDsiLFHKFupyKkjBUQImVrZBPeGndC3FuIHUSU8Eub0Qu1B6LkO98rqgoJa9O+n6oo/TlUvtyrX27Vo/TlWV9tVaH09UgDAKsI4FVr0CtXoVcvQ65DAqtP8Apqrc5v01Vo/TVUoMBq40zC6pq4Go0ikqg2CjmYqvAKiWo+26tM+nKgL7bqtQ+n6pP+n6og/TNXdmAYgxseA1oXoFSh9P1CiwaZg9MnQw6YL0+ZcBOuBmVTh1a9OwfECmSvFbJ0fy3yKvy3T+SysEAFqyPU6VjMuqUcrkFSt6Wysg332Uj1uFbjk92pYdRioD6SlqYIaWhfQ4NStmkpaESVUFI04e/DB6i2ko6osZeappGxYoaNnq8OHw6YsKj4+tZCx30j4tqInO4qG1XUhNniLuKh0uqYmrej1yTRxLfj1sqInubPE4uqWkGoi1007in1sTUKmIvkkbGDUxARzRyGrkkFS6aNhdURMdusXExA8TDp4iLQamEBr2uY6qa6rjqIpHPm0VdXVsFK2oia11RE13FwJ9REwmeNrm1eqpE8Zeqt+jFS/WeUrqrnK61LWtSbTzOEgLXAKx5ofczbC2wpHl725EWZnEE1ulrnAJpuih5PNgG3QaFZTeWGTRbEBgw6GGZgwVtXT0+H1tXF6ji9RCVJXQ+qUjKXD5WSXqsRdAa7/EdidHVsdDFW03qWJEl30l4UrXyRCnfFCyne58FJI07U2w2OaNUVM6KXEIHuqWwyxz00b5oYqOUtcHyxbMqFNIoKeUtiilBxKF73U9K4Kmp3xuri8qSjmD6m7GPjl3H0zxEIJJXSwvjlDjI6CF4w0wSyqmZI6proHySVFM9ykikY7hX7UtMSZYZQ3Vw07IZbxRSZYg2+IRCx5Lq+fRdE1usw4U96gooYVpVS7XPRBWC0haQttq2mLZYmtDRmOwTz1VL9NwTU32rTpv07Sxu9ChkTvp2naBhmHhenUCgwWklUuFUUR9Pw9cBh6bgcD21O3TVPERLiIlxES4iJcREuIiXERLiIlxES4iJcREuIiXERLiIlTYoaZNx6do+4KhfcFQvuCoX3BUL7gqF9wVC+4KhfcFQhj0zR9wVC+4Khev1C9fqF9wVCjxeulaceqAfX6hev1C9fqF6/UI4y8v+4KhfcFQvuCoTsencG47M1v3BUL7gqF9wVC+4KhfcFQvuCoX3BUL7gqF9wVCdjkrnfcE6+4J19wTqZ25K+mmiVyrlXzsnGy3Fq6tbCEySNqbOpLtdvMkVLA2eFtLFCySnDXbcBqN4rfW8t9by3lvpvdDtlhv+vqpiTZC7Vi5knaMKorek0Sgo2UMFBSx1b/SqFDCaJxhjEUWL/7DDaJ1bO6mwoubRN9FwyiZVU5pG+hPw2gigxKgdRLDMJZV0mG0+/XPwugdPHQTuxA4fhrXV9JJRVNBSPrKh9JhbX4dhxqnem0NSsLoOJrGYeTi2K0raOsw+jfWz+n4c91XTyUlRhtC+ulfTYWsKo+MqcVo+CqnYXRMjjw2niq8VoKOjZhGHuqKNkMj6g4bQQHEqB1E/C6ZtZWVOGQ7FJhsXDVWGRGmpaClOHYnQcE6NhkkxbCmUcFBQ08uHnCWtr3YTTSLDcO4mP0ylqY6aiZPQz0LYKOrw1sWK4vQcJVYxhzaBuEYU2spBBI+pkocPpHVEQFbjNBw9LhlAa1Nw2hqRhtCJ6jOYEvDFpUcquo3FrpqypaDXvKp5nQS8U9SVcj4eOdq5Lq6ujC+PJ/QIrD/APW2WlaVLGHx+ksTMKa16mwuJ7/SWKpoBAyie59Ni/8AsPp7308ccmunaZfpfArtw93/AMfj7HOp66NzcAlp3RPkp+H+qZ4JZMdbJH9yPp521X1H0b9NEF+iRslEHTfT2BxSvxIObxBc0UuPjUPpw3EMExqvqZwNbgf5MPDHl+D05bhGMUxdhDBBI2WWWXF/qIF2LSQOhLo2Uv1NisUrMRxa8eDfTn+1xCuhiZ9QAy0uAh0VJhvDnBMfdLxn03BuV8VM+WkwzaZgNNXcZjVY5rKV7TN9N/TTJDiGEe7FceYTXSt1fVFHprGVr3VmCSU7oHPibTfU2LRvixD6dpS7E4aZ8tNSRmT6cwGKV+LR1UTMXzd3srJvelifILQtTtlzTDTp1PEUaQLYcAWWWlaVoWlaVpWnKama9O8k5Yd/rxA1bTFtMT6cEcC9cC9UsBhRonX4FyFB1YA1uK/++GR8EhxqqIoa6ajNXilRUwmqkNDHjVUyN9dO+qqp31M5xOcmTHKxzRI/cGN1YbNI+aSKR8UnrdVamqpaeaXGap7IquSKm4qThJ6qSeCKR8Mhxyr0vc57qeaSnlfjVS5s9bLNT09dLBTSYhNIairknqpa6WSsqqiSpnqa6aojjxuqa2pqJamWkqH0s8rzJJR4jUUra3EairbxkvBVlbLVtgrJYKajqpKSZ1fK6npZ3U08OIzxSUdbNRvqcWqZ4m1krKLjpeE9UqOJhqpYYqavlp4aqeSpmqa6aojwutqZojiVRpo6mSknhrpoambGaqSOjqpKU82kh1LLePlActSdG1wILXfHLJII2Sm705Uj38LuPW49Rbkj3skajE/Q173OmEkTpI3sbuPW49bj1hzGyGc08L44ons2IlsRLYiTGQPU4ghjbHA5xigB2Ilw8S4eJbESkbAyRkcDxw8S4eJcPEuHiXDxL/G1TMgiibBCRw0K4eFNZA6bhoVw8K2Ilw8S4eFcPEuHhXDwrhoVw0K4aFcNCuGhXDQrhoVw0K4eFGCBq4aFcPCuHhXDwrh4Vw0S4aFcLCuFhXCwrYgu2Oke/hYFwsK4WFcLCuFhXCwrhYUaSBcHTrg6dcHTr6iiZDJTP3onAg5SmzGuIdJ74Wi5qz+XlkqWsdJIXFHKk/8ANlQn8j2mOjn/ABQzX01XmbuizwdV3Wuq5HxmSVxfLU1Dnh5lmdM+0zjomkkvd0qZM9YlI+OmZPM2Hdc8se584meWPP5cNe6SmLpSpZpo42Ty7TXFirHmRk0r9O8/jMQkcyN73wuwx8jnVcjmVgqJzUPmfpfUPDJHy33HRua+WEl5ZTUriKytceKZNJIY5ZZBLI8MqnllFuvYgX2eXSN4iffkmfpfPPxFJrknr5HsnkqJzO+oeGVT3R0r3GOB8r41Ix8NTE7akilcP1/VH9qEXp+hD2FuRFwymanncT5Qxf8APzn8xjN5QVFr4WzlZys5HWVUYg+Kc4q5erOQxVzkK9xXGuXHOVNXGBS4kHr1JpTa4CV+Jh7pMUDycXuG4sGh2L6gMX0D1Rut2M6g3FWsEleJJfWdC9WD2OxRmhuNlo9ZTcTdMpMSMTfVdMb8ZBecXD3erjW7Gy9oxcNbR4qNTqprn8SzcqX2d6sC/wBZTcVaxetKHEdqePGGxqbE96Y4s1zBjGlerte+fFzLC3FmwsdjrXsGOgD1pu4/EdcxxppeMfsjigeTibS84o0vOMpuJRtTcTY1pxjqzFI2OGKsa/1wr1sr1petL1petL1petL1tQYlu0uLV3GyYUKbgXCiVTKyN1mvGlODWKWfUOay/wCcnd8Ph36rty410rMolayZKCrq+RjzPZrru+U/xHUWzeok5M90kdNGEx4aNYKxI3c7u3ujky96cuatxVTvxcozaNRq42xSqbw5SozePlP7KaoEED0w5gkIzyEfob1OTzYLAILR8uNj/Lsne0sd0PuQa1gMqu8qz1dy1lXUrlG3Shk7xi8cin940UeijkJGsrfcFJMXJxQWtF61qk6ssibCQlwNkDyDOjF5683qVN481P8Az5T+x/i7smH2/oa0uW29bUnJIesTDJJBGIYeX6gHtunG6HRRDobuTY0G2WkIgJwQQ7nMdouR3dq+XrscrIC7miPiZWhrzlS6tsMK0BTNAjyapOmTUVZUv9qvrUKftndXypj/APjenCyiPtH6dTlqdyP8sK/9/N9QZO7ofxZyFPXyj3ch2Cj7r5PZ3dncpyPfL/hqb3l8DlR/zyqP55N7yZNyKpf61P8AZT9hyhUvl+85BSd6hQ9v0jP/xAArEQACAgAGAgICAQUBAQAAAAAAAQIRAxASEyAhBDEwQRRRMgUiQEJhM3H/2gAIAQMBAT8B0o0opGlGlGlGlDSRN2+EmWyzUWWJ8Wyyyyy2WdnZpmWy2WWWWWWWWWWyzsstl8Vn5E9MR5vKkVwjxcWaXysUmRbrsnh/fyaTSONFcln5UrlWbHzh7yorLc0jxRu8rLzjDOUOxxrjpKzQhIn7yTrm3Ssm7d8dDNuRpfDD9mCouVSNqLxKRj4UYQuOUvfKKsUayooxEyyuC7NDNDNtmmhSoeIy7ENLn5M6jweXZbOyiijD6FLS7RvSuzEx3OOnKWXZ3nhwFhs0UVlJWNUKTXHUzVIuR2avj8mVyrhJdWL2aTQh4SJYVFGkXBEuXjRWkoxF2UUNUSw3L0bEjYkbEj8eR+OyOEzZl+zZl+zYf7Pxj8dH4yPx0fjx5TdKyTt5LKXao0GtkZXlL1n98as0mlFFFHj1oNaOmTjRCJipaSGbzh7fB/F5MqVfBDCHGifrP74Ms1Flllnj3ekeGJUTVkTEVoWbzh7fzeRPVLlQkR9EkT9Z/fB8/Hkovs3ExMkxSynF/RLFnHpm/I3pG9I3pG40b0jeZusw22SxWmbzN1m8+M3pVj7yWaIxs00RJGIqWb98HzTohTQp0OZqIvrLHf8Af8CMH0yfv4PKlXXBZRIKlYpqYvYyVae8/vg+KhY1QyD6LLIKxIbpEnb+HA/iT95vhZiy1S4X3lH2R9GlLsb7NZN6h5ffwQjliPKMqFK8o4iQ8ZGLit/BWWB/Fk/eVo1cMWWmPCTopVZEw8IQyQ2as642WRjYhuhu84cJO+aG8sL+DGPL1w8qX1wx5V0R9ZQxWiGNGRIkSQ38DIqxLLEXBZvr4mYf/kyrHhm0SXfDElqlwaT9i4RxWjdsk280NcNJpPsTyxHnHhP4rZHEajQsrHC88eVR4vlFGL0xZIl6FnRHCkyeDo9kn9CZLOHBv4Vxrh5E7dfHAxY9iecu0RXRRGNmFhqJKVDjKTtmPSlSIvsbzhnL18a4t5SdKyTt5v4ISJofBZYNUKI0n0Ys9CHc3ZVCHlDOfxx4yy8iVKvlUhrsorhGVDxpM3JIxJa/Z4qSZ5Mank8o+jUiyXxpl5ajUSleWPK5f41OTpEvHkzBwdPs8vD6srNRs0xQl2Qhhtdk/FXuJKLi6fCy+NjkNmrLElpQ3m/8ByojJMbITcZdEJN+8sXskqeayiRhZVE8FTMbxdCtfCskrHCjo8mX18NllosssvjSNKHHKGM10LFiOcWSXZRpYso0mbsTdibsR40ZLSNd/HeWJLU7+CXrLrOih0L0Wy2WyzUyy2WJjLLZZJlllssTZ67Je+Nmsi7LNRZeTzw/F1K5HkYG2rRchtotj6QpSLkXIuRci5GqRqkapGqYpyNcjXI1yNchzka5I1yNcjXI1yNUjVI1yNUjVI1SHJs0mnKPZR6FpHX0dHXCWD+skfkInjKUaNP/AAf/AMNP/CS6F6LLNRqLy+yxvL7PReV5WWNifRZZZqNRZ67LLyWWBhxniJT9EfCwI/6j8PBf+pieBgfujF/p04dx7KznipHtnj/ZQ3/dRH/pqdI6PI6o3GbrNyRuM3WPEZuSNyRuSNxm6zcY8SRuM3WbjNxm4zcZuM3WbrN1m4zdZuM3JG6zcbNcjWzWzWxybPE8/R/ZiCakrR5/j4s53EeN+PhJT9k5apauCJYsofxPycT9n5OJ+xY069m9M35kpyl750USk0XITLLNRZZZZZqE8qyZbLLLNRqZqZbESR43mTwPXoxf6pKSqKJTcncuUnecPXyNFZUUVzj74S9/CiS+B+uEfX+RH3wl7+FH1z//xAArEQACAgEDAwUAAwADAQEAAAAAAQIRAxASIRMgMQQUMEFRBSIyQlJhFUD/2gAIAQIBAT8B3s3M3M3M3s3y/TfIUpNkFS1QkUUUUUNdqRRRRWlFHBuj2UUUUUUUUUUUUUV8Hp43IWqEin2y8dqnFeRTi/Haix0Sashk+u+mUymVqv0v4vTRqN6oWlvtn4LL1fp9/IvTJfZGO3ulkXjWMhO+yLo6hvNxuGOxC0avvirdEVSrVHg60TrwFNPx2ZSRfBB29I+O6Tocr0vTG/oS1rWyy9KNpQxX3+mjcr7IlFRNsSlpZZPlaUKNPSJ/UuI61yz5NxuLvSLoiyu3guJuibkyvj9PGo9kRllm83m43D7V47vUP+xbISLLEyE6R1UdZHUR1UdZEpJ+T+n4f0/BSS+jrM6rOqzqs6r7oLc6IquOzdR1GXqvgTN7N0vwT0sz8zZtPBB2SZB8978fN6WNu9WX2TzVwjHk3C1+uxFFFFFFGeqs3DdkGS8kOBc6UUUUP5vTw2x1erY5EvJB0R1+uxd+aLa4NgyKK0xZNvkjGM+UdI6Z0zpnTOkdI6ZIhjs6J0TortxR3SoS0esmORuJeSBjlev18ciTHGxRKGM9KqxrSitFpZZPyY/GtdvpI/8ALsaKJIbt0Tg48jQmY02+Nfr4eohO0bNzJRp8lFDZIjHdKiK2qu3aPWfkx+PgxR2x1RXGkh+SUmxLg6ZijT0vkvjsXZOWmGJVGTG2xwrSUJHSZ6fElz3yE70n5Mf+dKYuzDHdPsirZuJGTN9LREeUJFaJruRROdcIuxKzGqWuZ9mONLvaEuRsl5FLgiNnns9LGlu7ILjWeGMieCUfAkR4IuxKxlCXaiTpDZXBhlyLwLSTt6447n8DJLSXksWWhzIvjVK+CC2xrsQ+x4oyOlTFHaLW9bLLPoceT6MMK1yOl2YV8MkcDSselCnxr6eNy7bruyS/DHGUyq0ZHkarW6HnghZd74Ir7GjFrm1RFUvhl41sssvX00Nsb7F3zMEqVDRRtIqmT0lJRRObmRjZvjFUYFujY48EFS1z641cviZNU+2Mb0hHc6EqVar4MkbMUq4FqiS0zJ2bhNpWYcTyPwJLGqFyPXN51wrn48y++3G609LG3fyyj9oi+NbZeko7joxQoRfBifT4ieptxPSyuHZl8laYVx3MsvXIrQ1QuTYdMhCtMMdsdV8fh9z40/zyzrRMmbdwekyU6L1yyafBciGJqe9jnkT4Iesa/wBEZKSvsooorSXglyRVCKEYo7pULVf/AIFCycGhEoblRNJPTG6ZF2tZedXKi7IZ5Y1wen9Zvltl8DHo3QpXp6WH/L4aKZRRTNrK7bf6XIjL9LJwTOmxRaITSiOfJ1ES50aZ02dNnSkRxOMtxF2u+Uq1cdwoJaQjtVfBHyM5LLLNwmPlnBSGkUjaikUikNIVFIpFCo4OCkUh0Rju4IKl3zKNptK7fUfyuyW2CPQ/yEfUS2S4ZURJMqIkpcDxQOnjOnjOnjHixnTxnRx+To4/w6OM6OIeHH+HRxnRx/h0cYsOMWGFiw439HRxnSxiw47Ojj8HSxnRxnRxnRxixYzpYyEYw5iLIdQstnJVjUkcnPZyRzfumTwL+KzPltGH+Oy4ssZWb/8A0Ukvs3r9INWPyUbTaUVRSrSrEh+SuDybSjbo1ZQlyOPJRRVm0oo88FFFoTRwTlXgeWbOpIWWQsv72QxN8vT+S/yi2Y4p47Zk/wDDarkWz+P/ALOSZ7bG/o9rD8PbQ/D2uP8AD2sPwXpoP6PbQ/D20Pw9tC6o9rD8PbQ/B+mh+C9ND8PbQvwe1j+Htofh7aH4e2h+Htofh7WAvTQf0e2ge1iP00EL00H9D9PBHtontoDwQidKH4dKB0onSiRxxT4MmP8ANMcklybd0uBKu328Mq/uj/5/p/8Aqexwf9R+jwp+D2mL8PZ4vwx4IY+YrS+9KykNa13RjZKCSLLZ5FjVHTibEdNHTidOJ04nTidOJNJPgTJ40xYRRrStfJVay8/Ii9LLL7oE/HZB8fDlE/gh/rsn5+Z6LvgT8dmPx8OX4P/EAD0QAAECAwQIBQIFAwQCAwAAAAEAAgMRIRASIDEEEyIwMjNBUWFxgZGSI0AUNEJSoQVyc0NQYoKxwSRj0f/aAAgBAQAGPwLlQ/iuXD+K5TPiuVD+K5UP4rkw/iuVD+KpCYf+q5MP4o/Sh/FcmH8VyYfxXKh/FcmH8VyofxVIMP4p1xjQBSgRoLMlksgsguEJokKlcpnxXKZ8VymfFcpnxXKZ8VyofxXKZ8VyofxXKh/FcqH8VyYfxC5UP4oShs9ly2ey4G+y4G+y4G+y4G+y5bfZcDfZUhs+K5bPiuUz4rlM+K5TPiuUz4rlQ/iuVD+K5bPiuWz4hctnxXLZ8Vy2fFcpnxXKZ8VymfFcqH8VyofxXKh/FcpnxXKh/FcmH8VyYfxC5MP4hcmH8VyofxXKh/FcqH8VyofxXKh/FcpnxUjCh/FcqH8VyofxXKh/FcqH8VyWfFclnxXJZ8VyYfxXJh/FcmH8VyofxXKh/ELlM+IXKh/FVgQ/iFyIfxVYEL4BciH8QuTD+IXJh/ELkw/iFyYfxC5MP4jBVUsn1tNpsonPPQKqAxl/pvW7n03eazWdmdlTZRU+2NtBuM7AqKdk1S0+WJsMdbJ42jqs94zc+m6mCtsTU2/wFVte8ldIn4yUwCspKRBJ6UUzO7vZ9N/NSGDOwDdemI9m0CONs8ls0813RzCm117yVcltNPmqHGzc17YsrcrZgmzZU7yqUXOeZBF0R5bD7TX0wfNbDqICKQHLuNz6hEHJcQXEuJZldV1XCVwlUbabBJZrPB4qeOVgxPf2Fksc+6qrpF4eK2WNC4GqQyU1kuuJu59MFRbwlcC5a5YVGy9ba2xB4IAms1sEKTauQdERu1aqZYs7B525FcJXCVwlcJXCsrNqwI2P9cGVhI3tbGQh5ncsG8zsadz6b/wWw31Kk5ymqiaovFFgyXQKZM+6pbKSyWSHnZPdhGwtwmeSyFh3AwvPTIbgeCCyx0kuFC+PZENeB5qarOfgnM6NsmwCXmnXmyuoyGVVeaKeKuOlO0+W+Ih17lTKriJkCSJVXCBWdF1WyvHCPO2XTe5qZM8AmVxDdC0p7uvTcz7oLJZbrr72RfOwATqn+yju7yaoQ1wZdnOaINZIII+W9uig6lSlgopxKBXYQoiphf8AIZ25qROBvng2wVkVwlcBXAuBcC4Qp254ZME1lIeaDndNzkh2wMhf9juAEBv4nnY1xEwCiWTkarVy/VNNL3PvJz+5skic6KrXLhK4VwLgXCs5YZoQ21OZWczgvPHohLAHyEuoK6A+C4/4TrjjNZrara3zwVXCuqzcs3LquFcAUpLwtytO9FuSe/x3F7tZPcZLJZLJZWNpimbDZI1XCuFcKncVGD2XCMN3sqZlZKcltLZqVtdra2DFSxuGeHNZoGazU11WRU5FUYVdlKW9bZ4J5GZoNyPGx/lZnZUWZ46J17vuCqNmD3KmbM1ms1ms8LnzXjbNi2lRVVFI2lZyKM3AKpElsvouOTlnNNnhElnRZrPCMHRZhEzC4guILis8cU1VBEWMhdqncix/luKnBnY+e4Jagx1JWzksprJTAkshhOAyXihgnKwuXCslwrhXCuFOpkFkEMl0scT0Wa4lxLiXEVxFcRWZWaz3njhnZXJPf3O4mgqo3QZGk1sFqlIe62mffcQKzmjIzxTFWqqoZrWP2ohyHZTcZoSycnDHE8rBa/y+7Fju5puRNXXURa6GJjqEWzuvHXujIriKqZjsg9rQ0kVl9mLc1ms8ZYTtFVV2GKrbaqGwzsJ7ICk/FbWaujJiOOJhieW5Et5PELBD6N3dcEgmbOqiSzCuxR5OGR+ybPqsisisijQobJXCVwFcBXAVwFcsoi5JwWpiCTh1U4cpogtaVtD2tPineaExkM0XdAp9XV3DsMTy+1OO8chmnPPU4qdNxIK/EG0bDCi1af4Tobun2ImsgsgsgsgslkFkFkFkFkFknlMjjxsm3rgBRb3UzRXW8AzsrjdhieX3hAzfTHJuWCgsrnZkpW6yHzGfyPsRvHeahB2ZrZI4Q7rZKwq68SU11syKyKdRZLJZWRPJZLJUWVmSyWX2lwZMxE2CWClk7J2zTizhdXHnuRvD5q67NoUqAKpqVI9LKKtgCnbXPuiHcJVMD/MYYv3NEU5x6VTnHM1xOmqLZtmvC0YJBG9jruRvD52T6KbVddxDCEMA87KhUKyT/MYYm6MvsQ0ZuxuRQlipgKpkgW0ij+UWvEiMQxiwbyamrjhMTmpNCa9maDls4PDAyGOgni7KlVUWRLclwhZBZYDup4qJ3ZtMclSylgU+iDWNqrpMziDh1V4UiDril23I3lVQW7SzwBoQbge/ud08bgWH7B8TsNwCijYEB3sc5vFdmmmbX+abEZ16YruUsHhYNyNxSyRtkEE7yTcEggeuB7upoLfDc1VMQRR3XhibDHWp3rQhJXTknEPLUGttraba2jcjHLACeynE9lRGaMsEleBVbJmgUgb7+wV6IadB2+zCP2L3dMhupOCpZKckBZsGbexVaI2GwqQFviryIZKYW1KnbcjdAd1LBTDsPIWYKoQF9SI4+tkt9PCEcLHayRIXNXMXMWZXEVmVmuJcVFxpxnXLc0wVV93XC6dFXA0fqtmVdaFQTd1Uxn13Lby6rrZmmxXN2T26YS4mvTfT7b84MigiqWVlYzytdEMSbD+nH3TIXap3Dg2gaJkot2XAdUT1WSb4oEtmVQYaquWAW0UyinbkTC4QuELhC1jmTazIdyhAiwbrXdCi/RpMift6FFkVpa6wNCvDMI4p/b+FhtKdLuiK0Te8rGeVgtlhrRPeep3F48USvonDscFdoL9ruxx1wAqQ6oA5qVjtyLWsZxFS0TafPViXTuoet2okIVd4qFDgOuv4imPjMBn/AAVOF9SH37L/AJWFDBLGB9mbSnea46zyQl2sZXpYwLaP0zljdLN1FTHDhj9RkmtbkKKMGcN7FxXh2Kk7Yd44iLKrIrMhZriWV5HePvOGu6BOdrA2Hen5qQUV3QG6FHgn+4WEQhlnLGTjn9kcPqjtFVNma4lrXTIFERUeNlcIYMmjcB8IycFxouOZx1UgZt7FVoqWlSGOZGac7tizWYtA7oFtChD0zL9//wCouhEOmKEKKzSGj8RW8DnNAd2lSYfqvy8LBhluAN0NxMLquqrRUUiEaFZFZW1iFoQqffE5xyCc49TuPGypWe4opqQos1s4skNlG90TtyE3ztGodTq05FARPpaTJP0mPEaYbG0TorvQdgpfcDcVWaKaGnrhzWdueGqug1fuvDcVRl0s2clOKJqcIzap7hyInJHctbCaSUWuFRZrHcIyTZIQYj5tFk+pxHHP7rJZLJZLIWUwkDJtLTiACkLRJDDJTV0keMrHUks1TGZqTc8coTafu6LajNHovqOc5HVNDf8A2i9+ZQYEGtyCb5WtHgqbwD/ZHP7Ik4gjZXiwjBW2neaBQ7TrjyWWDos1nYImlUb+xXYYDWjoFJuapRHaLgFIKbjOI5ZpsqoIC02nGP8AZWQh5m3ywE2Xju/Gwysp0KykcGazWeOgKEbSBXo23ZoO61bKOKBoJ91OLEEvBBwiEtyWdt44jjJ/2CdML3dLXd3UwDdTwSOamrzU7BkslksrKWyC+rU9leAGzlZRSaJqbpIxNbtFSfDJI6tKvPa5XZSbbecJ2Vwn7MfcOPU0GAN7YJYuErI7iTs1cfkgDkVMcJx+Nu04BSb7qYTT7qeayVFD0YGV47RWwcltA+aLG1nYXwm7I7oteJEIb4DeD7YoIQx+m0no0Tw3ug+wrmmz6It9rclkuFcKqCsjiuP4D/CuNqVMlPixMzkpPN4I5zK41zAoLW5XU2L3soqhZboD/ZC45BOd3Nvi7B4oDdyU8FM7PBeDqo4rx6WTU8EyqqmSkMDR+2i8lnZtWG0WUC2YTz6KepKIcJEKe/rRcSqcQks1ms8ACILZKslRwtuDN+CmQwVyG9lhnZcFXjhUjngE6BOmJytkbe6yt/hTt2GkrxOa2kRgNsKEP1Okh9K8fFbMJo9FkEwt7o3RTv3UXWVpRbJLUbu0PBbQI3kgFW3M2bVMZNon2WX8qk/e0gcLKbgS3pOKSBHRB4/UEbymQgGhNCGGRWyvGyq8EYzzdZ08V+oqt4q60SG6hvimQZVbAc9ShwPcqlxgV18dOn0Ql6oSIsk8AhU4d1luKZKmZXLK5Tlyn+y5b/ZcDvZVm1cYTsi0qtlU5/YIncS3p3EuyIsKaghhrbdFmqcKDJHuUJTkMB7jHrv03rqytY+9LqiGdTMqZQaOlZoSNFmpLKiy+xm1cTfZZw/ZVENbTWKrAuFcJXAVwlcJsbDHWu4JVVPe572VtEHxyB/xQ1fEOwV2MLru64pppabzz07ITRCc5wmVQK90tKOLVu4XOyV0totmGF+lXb4n2TiO6BldC7k4HjwsbFb1ofuK4HO6dMZKCrVUUt5/O6OGiyvO7rKyT1zdlfSbecV62G8JtKmKMV0rNTTiBjmMwmPhfqQvUNQnhzqFA9QjPhzQAwmyIz1H3LfKx0szTcNGAbmQFbJhFUWVlcDtVIXe64mLiYuJi4mLiYuJizZ7riYuJq5jVzGLjhqpZ7om9DXFDXExcTFmxVuq7syVbqe9hYAVxQ1tXD6qYcyS4mLiYuKGrrYrAPNbb2H1WbFxMVC1ZhdF0XRdF9Isap6xk1qnmrZgoj7TNcVmVrYYybuCcAU7clVRIkV9yDD4ioj9Ae+/DEyx/UI6QXxpMkHeaixC8sYNkHzWkaNEJEZgN3xKiaRFJBDrjR3KMBr5Q2sD3OPQLVaHEfrgP1ZOTWOptSK/DAm7eAX4WZuXpTWluiGJKDEuC6osF73FjYd+mab+H1kut8LSPRXWvBKnrGyUAQ4kg98phXQ8TV7WNkhee2tUG3hePRbbgEG3xeKk17SUQ14JC+k5hMx1V2+L2S2y2V5+fgmScHXnXVdDxeyU3uAQJiNkclJjwSmw2xBDBEwT1PZBr3gOV10RoKO0KGScNY3ZzU9YJBXr4u5IExBVXmmbe6hNhxAWyM1dY8EoMJAZcLioroUQXgE0OiicuqIc8Ahcxqk97QVdLxNavYu5Z1V0PF7tZGP/ANhRI30wwqTs1RZYqhZLJFxzNoPU4Qqncx9F0h1xkXJ3YqM4R2xo0Rt0Bq0iEXfUc8EBQIN3WuJvukZSK0fTYBqQL7eygwdFP0gS8+ZKiTM4EWEIbiEdIOkti3eBrUIjv3zK/Fw9IY/aBudV+N/EtucV3rNabKOIESJEvNJUV4i3Zwbpf3cmXtJGkUz7LSfRQWiFK6+9fWjOEO9q53mpsQsuzi37vYSQa9j3Fk6l1CuS+Qds/uCJfB1hiMAp0U31lDa2a1ga9zS27JpUO7DIoLxnMSUBjYdy6Sb6uXXhzWFt4miazUGGWluabC1M7sW/rPVCbJj6lPNMBYQ1sQEXs5SWjwtTynzL+6hRG3iGTmG5qHNlLjs/FaNSV1hDkWanWscKHsUQ4PiX2gTB/wDKjQrl4l4N9PhCGbr4gff6JxDJnXayX7gnPMK4HRWukU+NcvMbEvXe9ENJZALmPZdu9kIR2X3JJjRB1V2GWTUFxg6sQ2FpTy0UMEt9U+62hghvrNR2iDrNbk7stJEpuc0NB70UaTBWEGjzUeHqb5iyk7tRGHEh3jGdsuUCFqZat0y9QYJhXTDdMxO9mkf5DvJNEypvc1vhOqo2Z7mx7u5TjbkslkFkpDF4WQohivBc2a50RfmHKmkPU3x3y8V+cX5xEwtILpdlKJpMj4r82vzaDmxXEFRIZhiJI5lfloa/LQ1+Whr8tDX5aGvy0Nfloa/LQ1+Whr8tDX5aGvy0Nfloa/LQ07UQmNnmpBjQFwtXC1cLVwtXC1cLVwtXC1SDGgLhC4WrhauFq4Wq9Dg3m9wpXWrhC4QuELhCvmFDvd1wtXC1cLVJzGkKTWNAXC1cLVwtXC1cLVwtXC1cLVwtQcYbCRkVwhcIXCE55zeZq9EhuZ57rImzZzUMMM5uuHwKjQ4RN9oMieslHqdaxt5vio20Zw2Nc7zKjSdsi6IfjNO0Zrna0UvdCd0Tbo/9gV1uVlCoInJk5OXOPuucfdRTBmSR1UR2lxSHLmn3UmxSfVNY3JtFG/uVxtGirndkYbdIi3v3dFF0suN9j5LSXPcQYbZiSGm3jrL92Sgu0jSHQ3RWzChva/WwInC9GJEeWucSGJujxpit0owIemERhSRCOhkfUH/jutS/Sna7KYymjCiVGbXdwhDZ6nstU7SIt/8AcMlELn3YMPN6LNC0l2u6B3VPg6RNlwG9JHQyTIOz8EYTCS2QIJWrh+ZPZalmlu1+U+k06DF4m9e6IBusbVzuycxukRb4/V0VxxkwCbirjSSxwvNJWj62PEZEjCiiaPpkctdMXJfqTmsjuMcfpKvmPEhzJDADmtS0TiTuyQh6XpTtd1u5BDavwnVa9NgvJAPZRouiRnO1PG1yGk/1CLqobuFozKOkaBF1sNvEDmE3StKivYC67RQ7r78OIJtKaxvE4yCbEhPLxO66fRRNK0mI9oa67srRoWsLoMYTDgozNFjuMaFm1ydpGkP1WjN6904/06OXPb+lyjuaXfiYVbngtHdFc78RGPD2CgaKxzpPlVMhQSXB/CVBLHF17NGLFeWlxIhjuho7B9Um6hD0rSIjo3W5kE2Foj783C45Me2M+KA666ZyKfEiP1ejQ83JzNB0hxjDo7qtJZGvAwmTkO+ORsDh0RDnTmZg9inXWta99C4IPbmFHn/q5qFDnRiLw1oinN+42mmwD1tgf4xgc0rmoO1mVhc112a5qvsiVTC/NRv7lp0Fh+q9mytUWO1gpKS0lsMTcH5LT4jgQ25KqH+Vf0260nY6BaJAiD6rn0C0FkKNCYIFXBxzUJw4I20FFDGO5uclEExeMK7PxToL2O1t73WhQzzGM2lpMOcnvZsownMdrBSUlpUGDzg6ZaoRa0i46bvBf1jSGdGXQUf6l+swNX/2Wgxf3wZLS4TTKK9mymwrj9bPsmAcTWSctPgw+c5tFdDHX+0lHiBzWRI2y0u7KBELmxIkHZc5vZaCyMxpiaucMnugdIEogiAEItGZAWgshRoTGwKuDjmmPNGRajzUYPa6bnUpmtDhRebnJQ/IrSNH0SHdMR31HHqtDiwgTBDJU6LTY0UFsEskJ9VAbpTQ6G6LKq1cQAMYJMA7LWu4IInXutNgxY0KIYhvtunJaR+KaXQxEqB6LRA1tyFDmGj0WlxtBhtEa8WxT1UIQK6t22AtaARCY03nLSdJBu6PDvEnv4KBpAN6FFu3VBPRkK8oceIfykR5Pl0UN+b9eW+5WgMhxoTG6PVwcc1CeeCKJjzUYRGmrpjxRfFF1sBs691psKLGhRDFN9t05KPBhc1j9oKC5rXBsOriv6k6pD2yF0bieTB1Kzc5SdDn6qjCPVULgtl6y3NVNtCjPO3R/wDGFnaQHLmrmp03TmuauatuJMIAZKN/cUHwjdcFlDvfuu1TtSaOzBWqddbD6hoX4SmqneTWAMk0SGymR4jrz25TyTosTicoBN0mBwmSIm1s+oC1kzfzmv0F37rtUXxCXOKD4ZIcMisod7911ayE6TuqLRcZPMtCiwWyuReJDRv9O9eUGE+V2FwoPhktcOq/Re/ddqi5xm49UIkJ11wREoYJ6hqhwHSDIeUlFgNkYcTOa0cmQ1PDJCO4NETwCGkuDdYPCidFi8RUJsSX0+E9UAbjiMi5tVfjOm5CLCleHdOe7Nxmi1hBZ+1yDHkBg/S1DRaasOveKh667NglOSiwGSuxMz1WshZ5VUWDshkV140TYsOV5vdRntu/V4gRREwTnmOi1eyxpzuiSOjMkIZMz3TdHN0saZifRGPs6wsuZdFGhsNIvEhCYG3Q+/UdU6LF4nKEyJL6fCeqdr7l1o2YjpUWkDZ+sdoyWthcUpVTo8M3XOMyOiLBdYDndElEMOW2LpnjyWqNDOYxUW0JrYoVI45lE2wto8IXEVxFXWuKB1k2nrNFwjTA8UBfIQF+c1WNXtNcRXEVxFRy9ocb/VNa6FNzuzZoO1QE+4XLb7Llt9ly2+yN1rDKhor7obZTlknNDWTbnRAFjKrlt9ly2+y5bfZctvsobDDE30FFNjWEZZLlt9ly2+y5bfZctvsuW32TwWNF0yyTojobZDwU9W32XLb7Llt9k+Hq2zb4Llt9ly2+y5bfZctvsuW32XLb7Llt9ly2+y5bfZctvsuW32XLb7Llt9ly2+y5bfZctvsuW32VWMC5bfZctvsuW32XLb7Llt9ly2+y5bfZctvsuW1ctqu3GT7Ita2GXDouW32XKb7LlN9lym+y5TfZcpvsuU32XKb7LlNXKauU32UHVNDadFt8Q691W0yU51UKL1dmqISrdoUcMhtFTcZnBC/tFrh3ElcfxFybCGZq5Q5tAooMs7qimO0A9Dg0n/IoH1NXsnaUOUe8wDpmtIOvLbnC1OM7t2VJp+tjau5KQCeL10GNdLuwUdmsL2te2RWlBrg0giS0U33zDyFBfrjfe+RYpw8yZTUT6m00i7Wc/BQA+OW353vBaPeN4NiOAd3UNpfca57gXJkL8QdXIm/PNAuN4zNVe1rqxrnonQ2uJlEu3vBBjnyF+7f7KPdff+q0TWkXot2666GKO7WmG6Hwt7qGXRDdMhIJt03bzpF3ZaTqn3zsi8ojXumBlWaH1NilAr05bd2U/wD0jEMYiJrLtz1UYX/qCLJo8FpUQPd9MyATgyOXjVF3qgb5fehX5HujFbHL4jhl2WrEYxGXJqDD1hhscDNMhPilrJu+p3UJmtNYhbe8FFfrnNex10NT3AyIam3IxiX4ZJ8FAa+M4CKJlyaL5IbGADu6vXsn3ZTRia4tiay7cTjOUnylNRnOeZNdINTTfkwdAnuBlddICa0gX9u+LoT3N4gFeZpBeXSn4LSGw4xcGsBBTHCI97tWSoToT77ogJcFAiCKXveZOZu4PkvVSf72yK2olE1kMSYwSCuw8/3IoIoIoInthhTAFF0XRdFUp0MsBl4rlj3VYf8AK4P5VGD3XAPdcA90/YBvGa29HY6XdN/+ND2ck+I6AxxcZ+SDnaMwkIF+jMJCLTozJHNXRozJIh2jsM86poGjsAGVVf8AwzL3dSdBaR5oBmjMCa8wGUnTumgaOymSunRmXe00G/hYd0dFJsBoHmvy7M55otGitM81qnaIwN7IS0ZoU3aKwu7q87RWE+av/hmXu81J2jtI80QNFYAVq2wGsHgUHmC0uHVX9S2/3Torq1nJB/4Zl7uj9Btc6o3dGYFyG+6fE1QN7otjRmN9Ux74LSGiUkGnRmXR0Wzo7KK8dGZe7p0PVAXhLNU0Znj4q67RmkdpoAaM2Q8Vf/Csvd1fLKTnJXzorL3eapo490HP0dhIyV86My93QedHbeHVcke6N3RmCeak3RmgKepE/NTbozQVfGjNvd1yP5XJHuuT/K5I91yf5XK/lcr+Vyv5XK/lRooh8vpNMN27dCbroga6Z6qmkpuqia1vUKcP2s+oZeCut2W7gDAxnuqYR/bgnPcndgZLaN5SaJCxmLZRvmw+O5krrB03LfstIa4HbbLDRSLjuc5YXRj1oMTf7bTbSzNZqtkhnvs1xLariJtmctyzzTvuzvKCa4SuB2FrRmUyGOgxQT1mbK2TO9OEYwpT+lPNOllbsyW04ndtT9y4ff8AEfdcR98MHzxwfXAN6d962+u8anbk/aDff//EACgQAAICAQQBAwQDAQAAAAAAAAABESExEEFRYXEggZGhscHx0eHwMP/aAAgBAQABPyFM/iD/AKIYT88DGXxDaTn4EtQPwIlN3EBZ7aMD9SHeGxAV/wBmNT+SpIpXxyp/bklP6cdraXaiJcP0Ie12FR0IzCQNSwM76BEf2j9QJfvFbH6UfpR+lH6UP+pEG57Bbnxhf0A/RBf0A5hn/XhN/EqfqI/6uP8Ar5/R5+nicm1CupA/HKvy0F+Z4ugv60foR+hH6kfpB+gH6tpMv68fpwv6MfoR+hH6cfpgv6Ifohv4/A/pwX9B1Ouf9RH/AFw/XD9cP1Q/RBiH0xuCXQnvtB/1Y/Qh/wBNP0s/Sz9WF/UD9CP1McLj44uexpDOv8Q3JRTuvhn1Qw+zEmqjmHPWaYaIvaBS1MLpCmTzN0WUJWA3CkwpASfKRr3MjHeBWoVSNk+aTmyGwypNcbTsM2Npbtl/DZJMCSmilw6JOFQhkPkh8kPkh8kdnmLsz5aS4joRbDv0dxySPTHwZ/8AEhDk6guEWxkNGWbWQnLJtSctv2M8d7MjCehPQvkvkh8kPkjtkCSJ1KyJrHYil/8AKiyHJLaUwLCNHuKxmmOwCphm5AwQc8kpAsSkci1bZHlsqFBshqUcJsRbpRKXL8CQM5IFmJbrYUQuPsSjcpayLW8ZfhCyS3LR8LhFtRJEvez8kcCSyJ25K5JXJKICQnTwJt0Pl50SSSNjMB8DWI7EiCCCCEQiHAp5Cfk9sC2SFD7GILE2NjyTJyq2INyrqBsL9pKytmBB/sZUqHLI2U4FI9AnyT0y+C+C+DwEncak3Cy+SHyR2R2e4QSiXgUo1aLqSZENtymtoOBbnQGcWMINqTjBPw5FKZjcfWMEy7qCLzVEwuVyI4V3uJqL3HhcIiVroSeCh5sT3ZCg32zaFuxKMnLInHhk/RXl1aZS8DZkLOhRTvLJqTg9wlcfayH3zMCitN2OC8kJ2XRUYcELSdcPdpOjekmLNuiF8x2iV6YjVZYfEzoZEJmaoi8dJ0Xzb9qNza+okwNI7Te4EUKZdiwZdMEHHlGUExM4EBJhLc3E5Wkk6SiSA8/6ZJLPJMaSfFE/6H6ATX/EgwnOIHH+YWL6hFuEmhpyJjOtXBsCbiV+TIbC+53iSbLb+R62TGuCSll5gRtmpZh2Jsq3JZMxsU1vQkm7GrQlPkmaCKSHsxQHONyj38i6Jyps+diZcvJS2LTHlpTWTruhHmH2wyk2BUrwyPsSPUHSJHZlb4P9mLSE/kMW8k86QYRW8TokT0TrbBZehPgwiYjlGju0I08SJF7xqQ3OytmVyhxUdiVimTTigp6L6HLMh29SvKmoE2NzLEhniwh5VVkaVBmDLtwIkoggocLgXG+SD3Rh4PuMSGBQ4Jv4hq/hP0pL/ANfwHIHS+5wF8kyhD4ZnFck4eYGGxhxonnUBKJttEjf5OIROlMASWWMCp/YU094Jf1GtZjafwUYxumC8fNlolqUec+St8ckWdtiCnLsnRmodWSL0bMsS20RKWWUXYTY1OyG00J74E24iyxGQeRIXuJSbyPRap02qiAYcIooogaMEokkkkkd7UNGZ8GNE0g/NtcInyBUcMuSItIGowqfJnBKYFlPYHCttigWS31IEBK7AsiZQkQGlNdhCEpxGGJ9CUShNaJFoWlh6Y4IfASJ7uRKkInZegZt6GhW6cLErCPYxLuSHIxEoe0ZJYVAiZLT3MS4gdWe4pW88iMvIzbZafQyVvcdJnBH7o/YJnvTd1ogXfSbPFtKimRt8FlkEMgwbRbKCm+0EBEtYjms5XKMi+QUVy+E4tjYnlSjYcDib5FZThLpEFd4loJFMHDkqiwhH0KYySiitaGkUyhI8ehhbLwIaz1shvb2KotsCexWWuxEl5MV+mwgXsAKX+Qgc2n2S05Q9yCEUOEyhFdD2ssECSRMkkQyIdTgjWy8mGSwZNjYkIMdP5ZKxCIHAQUFHInEvMjs7FXuKCWwycKKFTbrklUG90xZSCT5gTiW4lASJs+RJJHjR4jTAahFtVnI41Js0hcQh5GsPVCmxu2EaSoEoh4HMMyTOElFG5IT+hQYo6SeXP4E3hETKWyIdnzyWR98X4OkIgm8Ca1jRLKYsk6JNkKniQuFCNiOIwS2x4CCCnG+yfeSWyhI+SUSCdhNVRaeZFoB9p6lDf8Ahwz2F4KJojDnge2L2z/Ync+Tp9ZxL8k+ia3Cbg8yF5JAt7kKJQs8kBlzEw4EuHSoSYazVlHIlQ7Gm5+lkfQnYdvoLgyShPI1Bp3uU5mhFPTkN02RC3mBtmxWP8YJhMkbYh6KhDku7KVsoHhOkuDQxo+kSbGBCJK1nWIZE6BtD2msTy8kZI0uV+wrIFtpKiiomcDpHJFQwxMA6MaSmou/8jXZvkb7L8khSsFfd2MmpTTPc9z3Ftb2H/nAZCr2FDWcqOFuJKYjoQlDFrZCUDVwOoJb5EP2HImNWAzM+EsRE6ch2Vc2lFNkcki9yO+ZGcFn+TrT30cUsnMG9jWEvuPTOWy39zl/liCvhEmSjRJLCqTTkWeVPuJN1GkYIXJpR5p6p/JTStrN19RRMbocLkTbyxPhJKVK6Kiq8mFEI/B/pIJnD6j32HBeERR1PURNthfqYRrGwh4aYi9JBMJyYTaJEe7oEkwm5Z0HQQ4IcEOBLaQV2uB4VwySb4UNCeyeQ55DX8WLlfJEEhjjIfqyNQlBDWL8nZChkqp3IlyZbHSPJPTURNl4WS48rgTU4MYSHbjo4CqR4L3k3S1RJOkIjb4CHhORp8349Jjl9xS3RK5RK5RDlCXhoFvCPRrdOBKQkFp1gG0qRJwYewyQ81zqvsPcRvwSl8Cz2Ol90ZlJbESpGQmurIuw0x1Am7CK8jNu9GnSsDOZuInG9mNTRO0wLj5E9NfzKE7CCBKIkhKE0X6WOasUXHoKChKBAjRGkRin2DypTiIRHk6Z1B1aISMJoyw9CeMjaZhCBKTCZsjYkfDWUOqhWOGUyKfLslWbY1JpkcGI5FTvEiy07FkRzA5YkM8K1X4DKVT1TIcy5FwNokuRR9ErmNi8JiAgIXJ5aFtRKnChRVCg68jijJNSPm+RIwi0aGE1F0CYN1sn1LeSm3ORCXD37FbjYUwj4ZJPKntwKJnDwMo9xvdBu/JSH+UQIYtHgVLRYFp0qfUCSdJJJFgNjOmNQJhnIuQRHtl2RjiWJCQkIWolhRCF6qyPdkjSyRRgonq1i9iCjfMOxMUJbE+XN0iIRB4J6JQ6z3OkxJNoaCSTUcjuAyTsXWn50K2vHghhwNpzFQOmXyM2ePJL9j/Rj4/ydD5GfFXISgwfDSPkRCjKUIoax4GR8o7Y2F++P2xL/Mcl8k62+Rm8mSMTwN9Uoam6smVJsHxaTQsGIqsiueUPGbyRvNcCwa3InZjJW2hMjmeKPA1aLR2GIuYdXiHN+wuW04DLZ8NwTJKEstjrWdMvj0UZC4FohCELKmCBoLT560CBI9iGZQ0/IsBVMoRWVmzEy5/ArMCTORlMR408iM2oPgXHgjcp7NYeBLi1ylwNe3WtjY9PoX30+g1+tfYTr1pCUsDTTEgvRDzWrtINjgSUU4TLnweHaJaHuJwYPgakvMjtocSPuw2MdjHl6JUUWh5GNISyZsgHOW7HS5QgeFfipJWvA/lzTKseKdW4VlRBIv0fYF6OZtFotEIwaOpEglpRKGIckkvVZCQdJcvReN8jKYiT9rRKFiHypJstVSKKnD8lUGsCdvI9y7utEFYYPQi8C+5GrPrP2/4YxCjWV2iZySPV6Yhk4dkuDYL7mw56HYo4M91jrJETpl+Ro0WjCJBHaTNiHhLWqpIlvYxs1Uf3MJj0gzJ4F6ORtFohCEYNKWbtjQ2cxkIK8Wk2QiAl6Bu76CpXASm2PbWByQxzkKgBlE0+RFA5OOLEFTasLxkGElnkQeLbAzUHuiBBLFaR6ar4xoY0M+u/b/hmJaUGGrUbWw69GFf0FPlwcC+4WQnDvDG+VQqoo6tDw1W4ljK5DBLcx/QsJp4ZMgsV5LiJUGGiQTQMsVln9I4RVOwe7cozMtT5XOmfx6vs1QtcGlRJ+T9Efpj9EfrDrfB+mP1h+kP0x+mFxPgSz3bX1OpB+BVKR42WS0FxolXASFsE1KkFJtsbkU36FBYI0khExoT6JcQIgr5n2Gtcr0PJIgdD02sSGydV9RFPgxeBJ9yW5wcG0TYiUvLLnNE6W7miV0M/sNjS9TpaCuCj7hoduLVtx7dxNG46ETzCZiCZqxQQihCrpXMaGXx6K09mjELXBqofpnWSRo843Fp+pcodtqE/DCFQszsbTeTbRMnfCWKRaSVwNY0yKda6FxBTKY9ASQpqgfIHzDuEeGSzhvsRE2XJA0Hw0GoHME6HJuh7COk6EPpPHr83MIxVVBTd8EFXP0MoeRs1gd+YIisjmdqIeIZYFEe42i0etJNbkRUMZFTJCi9MxImObEoUGNyw22QMIkOCFdUVxyZfHorTYuWqFri0yKH6ZE/Q4kFERE9mNkCCbpI4ECq1jQr2d/ctHAkyEJQppGxCNEopj7fx0XYSHZAlkvRIb4H9tI0TLcbT0yGIG4rSCBAhEGZYpcNh3XY67IxJLmxqUrXk8QTWwIiMJkZm1t6Ek2UGBZs6CUPRkxsgWjlwJiHuRl0hcdiNGTNHeJgzePQRiLtUttUIWmP/AJReiwKUNR4OCBkcjcfyaZMXDVlJrcspO0ZjYQ4hoREk9i3d3qe3ZhZbjJHpPo3o2N62JvgwkUOU2XriCNI05zJE5X6MPhFUYRsbTyMsQJISIJTWx7IY9W9GdHB4BCUYFmB7l7D1gdoTM3CFOxA408ByiITE+fqY8htis09MtFprqWi9GbQfqWiwMl+wslQMagzcEKYI3DZzyIvlwPy2SlIGmnBfV0Y4ksSNCE43nuR6CblQ7RtMuhDNDLGn0pkQ4E+I3bE/wiTghrLoZB3UM/RGr5CJWCWSpjbGXHZRihcs3k9wQmZojayMRZmwyuNIg7m0NalreSdRUzdbiqhHlOvA7grK3FQQycnjoQ3h5IjAkq5dMahtPJkQ3fCwLSehd5arRaYhjf8AIwHhjaPCVJGyQSWSJRRtZO0VgmcMdSZG0pC8LbIv0CQQccUeNRY0kknRnq7RfctqhWmIkWkjSyiHdmX1Bw8azD4RtBt02R8GyHKp4Z2N42FewHY5jeXY3pWkD2lgTNElEMsUNdgiFvAgvlGTyNrMtpMFXEb4MatXAomihZGNH1DcuRNIaMsuOAn0iKGfQtcX/FNwRBKZsozBkikMpLJArjIhu3ki23jA7LZEm2Jm6GqyCGKmAiJNjRkBbUK99jIEsnp/4EKiFkitpQyHE65I+sK+AyE+jfXNqqmi0NyIh1SHoahtNRySNNbnDTRvucm69SMyXBgUtBG5bHPuDmaU9ztvD4JnJuUlgbtKU3yRMJSpwZQP4YqTnAh3LeigvgmjaSUSyfaFaDvPoWuPWoemQmmyJWSOI7PGILvYOikIrqsiijyFRu3wMw8GQqWzgclQbViMKCEguRjPwYWDOV41Ov8Ai8spoDrArY6YnY8+c+iNwh6QLkaLccRoeCQlZTLghKHVbDq0NdqE7G0NpKhRFxBdlH7HqLRNEnIXJaS0WIbEzJHyihKwy0GH61DYQ+ZCJFckZG7gjXI67ktjols5GIFAlIS4wbGq0bkad3yeha4dPoDAeiGeYJGToSS5aDamEoJHwIoWTTg2XydDTjcaWMfBtIjvyEOP3lIcT07GAtyLTbRGf+BqEFI+j0r60+jHKCSSbuwUHPfByPwcr8CCq7hgjIeUxyUEByb3Jvcj+MIdtjXq9UIWUka+CRSMUSYXB9CEhQGoiLuyN8OCx9ZJXZwca8kbIatMk5IbuHaRSp68eiAR2thfqC5/gd7+B55fAwo1S93kX6wPUVigoTRDFFtBWFiRfgp0EEiPTI6QletszoxIPWp0qTfgiLE06J8SIUKZbGciGcUY3oOgIQuBFFtlNouBXZkzG4iSy2mPBQlQeGg/TEJDoLAEJppBasltkhO5BrUkvAQi7BcSklsjHRy4rhL2Y0n0QPeRpcM8EFaGzh4qeIJ09z6n14dIknRN/Bp0pQW2EfEIaTFuYO2Q/wAIF0VsxzISxDZsG4K/Y8udEtCSmbR+mO5d626f8Y1ZjcrEUHvIcuT72kZJjDnvrkaZLBDx4gxAOXAmnkUSLP3EY3FV7EQpXgSZJr4KSaCtjTw/SkA8owRC4fL6EeTiELAoOVkon85VyBESPREtyTYFQMd9RITO/kM2/wAhwqVNyKp0jcFanW/rw6fQaIQFLYQhXM27bd5ZQcqm5lt7C8TLYmtkK0AkNrO9BBZv2Z8hFttljyo0eCdCwhGxJCJo/X46F6GL0sWiWjKFHI6aJtOSY1NmhZ29mw6i2CQgIYClkoFTk3I3U8KdkJkQrB9juJtNODdPcj1KJYvUaR+xmfSMKWkRvqMDhSmSmLAUSBSCsV9sDJqU6HexTIxaMnRggppsFyK1GR/Qsktl7FDMaPJJTEP149MXgQhdINTuOhNWDNv8eTYPuRfftBUNacpQr6P8aQfLF8GzaHHljt6UTz0sSrWNcr65x6WIatX6UkIiCmew2hyE7UticpFk6c3yzuErD/IqsvkgUrnLsjq7KTZnNyLA+xjtQPEo+RE59159bwRsZMyUX2Dpq6WKjmSbljU4Is8jZrBTrIcBxMwrf6CssmhczKBSJwkeUuBIwGrQhQ0vBMTH5tJ5UkabDwHJAhDkhyiNY6JEkqRbMCmUWSGPTTaa2HrYwShqRGSJTFMla99g3bFij2Po5Jc5lveSjwHa+RIXSGDcT1ROpk+tGB3oyRaRehsYxByl8D/JEqXDLHpgxMrzI+xZD9cd4bLZkuBUE2mENCnLd/QNsORJZMTLwXOPkYFCZYzJpvVmOFkVi2U5TGOTFwiSQgnKyrvQ0ooxJHL3aY+cByWhEGaBimaXJnwcqy1BAI5spCd0jpjxklEt8Q0GyQ2JaJJGyUlPAe2QrawJmxxTS3QWQ2xw/wCyRkElTYwXNEJ6OsstXKHnRTJI1cCz6obhXrw9TFppMiXoYtm8DrkebUvfgmvM9NOSbEnkGjdi5hfkcpiTv9DcJ8DLbbJ2Es7DRI2w3OEew9Elln6WZc8RKEIZ7DbgQbg58l5RFbyEBOc0yveByGQfpl7cFymS08oyMt6LXpSIRL2RTbaI92REcDKLBF6ESGongqaIG1TWnS6rfcxyazTSmUPEvT2/JOixJlpmUYQ1f8Ixvy02F6Xq8fAl6s6MeNJaJTgkTPEdQhwK7CVpFZ+BbsGZwzJOw8KMCjZ0Te2+ryvb0UVvGmdpsUyZUoZU9x8jRkgQ01ubyYTmhcTLIeZTUGmBUkhT0Tt4siVJ0Q66NEhC8irXmiO7nZMZhAhjTTEKy2BQhN4kIPwIh0SW2Q4a+R7lXb4QoiKNEwsQ+IDGpBk1NDmW9ESLTLg6M0bb0P0IbrqifRJAdMb0kfqYB5Zslns643PuQRKqBD+o12PyBuX6o52PK7HNCyJlyZ0eBYo5IahLRZG4h7WNUrYlITUbizBRY+R4IlBIuWAa8jWtHsT2NC1IGxoahppk8QRMlhB9sjTsyTL8ihggEAn4DuHhMSbTDl8l6zMSMqN8EOwUxRGw8nxtI4U3UedCho8HrQXvRiu9JJ9KGhROdY1gXZFmWjer9JqDyJKHFxYpnNIc2uTZpWSCt6mQxZjyPWqBWyDd7eggsS0KNdk4aERMhspxw+SKm/ge0WFZYXJODySLqCUgeQ18RPoj5CAlJOLGsQ3E3kjm0m4VDZYpy/btkmWIFj1SymWMRQfdLkS9RpsQSBLHzWAG3cNblkiANvCHLysXIhDR4TD1eALRqjkX/Fqi0G411oNFGql6jMBDDt2JJsdNksSCnCO9ULxr7CHj0LA3ZGLZWxUC1eRaH2y3gNCDbRQJT8R8l8VOmfj5FFbiSjkcBwiUtkN8B4jpDThTYITWKrWehLbGacvhHVQ+NCCWA3kMMT5KyPBu4pdChUDAZCSXYgpAc6pExsVUhjCZRk8mQh49AWtl8vTLn0P0syCklmdCaQGjF6p0O/RlpxDlU1ckcsHAhbRTc6JS4HjaLGqyIaBWlYhuNGJKU6FmFexJNEwWokVijCV7L/3BRNtsHskHIfXT0WjCYbOiueJ2HBEsEhCT0O5R977mSK4S1uJpyiLGkyibQY1SkEqKqi2XBjz8hw4iWQ/qTK9JltEtEsY0ahpiJK6ODRYoEJn3vW8TFUL/AINjY0OQykRBHpdtNGJkkk6STog6Bv8AYwrZoYkk2kbVkl+XrOyA0uXqmQxj6hJEGbDpgsy30G3JuVuYTzpJ7zYxKITd8zoQuvcJmTTQ/wAJo6BBtF0EA6n5xgFJ0r+xJimh8CbZoS5Thoehk0sN90DM0FwOnLoTgomaTeSX5JjBAFDyhvHxixzBMbkYK6PzobdIvnI8iPK1YfOmCCNPImjvw9D9THtC0OSLAej1TDQxOJiQ34Gx0EPgh8EMSIlFN8DW/DRhc5Hv+TV4dz6L0bBWOXNx4MPTZiUUFlOB8t7CUlcMyTAzcwFluUjdiba4BCN9iIei140wncsdjOgtAQlE1gR9mQeQxQP2kspaEkqIstlFST5G3Zci8DdpG3A7E2kKjBBU0SjE70MgP2Po0Cphdjoz0NPYkbgh5GJWjH6mNmBLYE28KToKOASPcknVrSDXoDJ90KsdJHCt0VNqmXhnJUQHsx7CUxamWR7DzokohThwFqsoiFYGnBeyhJgeqSxYHoYsI1uYkxJjEmQnQyUbDybwmSrdPuhj0wlNF2MaU+wwyG5ThoQ2JlFKdhoFbeNEDGOBXal0PvgitCYMj5TG84ItR8oN47Ap92oMKUJYKIEJCMjHohvNV82JChvaRQqIYZHsNwiBFZB2uRsSpCcFwGdrROIL9w2hh2tH6mMWUIzwMd2JOSNDuR8j5NtMRCnIoOEDdVpStU0siJuTTSxCN1JMTbn8hnKIKuYImeRLPsdVTr0TORz/ALyqdxvCPMiS9zOjEPA+hcuD3htco2GNDMjBZmNh7MOxHCpn5FTqmoy9iVobDWglh/BSzccxs3ZWfIoXeB18Mn2kSsmeHZF3DcApnFk5PqORAczLNlWCHhNidIKxA21HcRSWt9BpZkPbEYM/BRfclSw6RLWSa/BImQbdJSebY9yQXlR4CBFHmBbnI0uoc+zfD9alouo6QsBEjhjQhifaieQNubgUldkIT/mGv8ZvCL5+aNPzhLbyLcQ3J5H5KKoe49SFGfIJkt5D2GW59L0a4mLHxilkK5Hg4oZzpkwYazwJKdoE6NNSNzZIJVmdDJe0NKkTI3SjwzRjdEtp9CUjg+8Ls3HIlRYppTooAiLyVpCpbkWNywJe46YxyH2Q1BTwFTpyIjIYyA9DrlK0sbLHoaielL/LB0gmbqJL4t+EXawhBZi2g3GRlKauE68AmppIxsWt+YktxCJFECBr0PJZOiUQ3lDDoUNWjPMXYUywL5Psz8FSf3YXN+Rp/m0BtOnU2jeM0tIEm8EDGJAhZYwqEJwsCIDouNYEg8i0XQ9LEJkIkhqGwiiMSOoMzKk6KMkXFiSyYDMtkCQg4kQXFJt7CNuZTfkbTtYmDdryPkbOkqgZcXbcRVNkYiSJgP4IrVQ9UtiWA4vVfBBFjQ2OchrG9ilsSW9o5obyk+WJspKN3eEBhVSIKIMsQtt7pjR2EXEEQ6oZiwMUiVh86JJJGyRPTIejaMBKFMMBCkeDcTCXI1aHHxDMq2xB+6PAT0MYvK4RmHDdi7R53GjZNCexBJkjrSb0J6GPAxiAJLjgLlQqaTyTY0KNhUF3RMLwIIMUh40YpRbtiwo7jiDmMnCU2n3uiSSfpA1KBQ2y5FTQc3JluPoYtv5REchJQtJayO4NVsLbA5I52DWJ7oSjMoyTayhGtC2xU4f8lSQ3ZJY03TJVlX7iMBJInDWqFNmUwPVyoEhFxQptmPc9EjZOkjaJGMkYojcTxgmNEjcCfUEKNQSSmlMeRRBSP0W7YNjUYNQxKsSliRBKyBCmPiZHhkOBqGm2yLcCQFE8sTa+BkXYa8USk2kxwQ5FHyKHerMhOvujP84kZ+c/Yn8wj/sSMoGI+Qh/nOD5SMef5DnkIohNzkTcv5iTP1SUli8kdsdksLPIgygUZMFZIZC+YnA/74WWYEt0OxSIfyFC+Qbl9Y6QSJlIQ3v8xJsIMNI/kN+f3P8ANkf9xftkUkycy2MMjbc5ZmyOG2hI7CZOkjJ0SNplDYx0NxhWJPljU6E9XF+BTb8aJ8hXM9C3mm/IkvVuXqSWPXJpDaJFYxZCVMQOhcYpKDGpDIL3nd8IrEHnuIROOSSWXA0L/PmiPC7RAqUD5QNda9RLG5Gw1HAXCZp1XBNSvXmxb68w6xqhlu4KNVWnwfZFBWWyZ9cOvGpiYyQHEyUxkHBA0s1mVPGRM3jEzuI4KEL2GpnPKVkZf4ljWzlEpOmcJi2MS4Yr1ocwpsTlvUncTK0U20OGqCeqFUeBEds6TuLyS3CkVqJm2Td+0JkYhpSpw1lEqOuItjQmcEm8PgbQk5MFy7Q3OGJj1ztO/AgBUovgUlWKUmBgwNVdG4D4THykae0MwlKfEjnBkctkQlqWm8I/ZFfom2LiV9pNtJweZ+CfbhB6XTj7or1aQcBg2ySJiF8ZKIbHpUJlDm6Sdwh8aRq6RsUSBkufZLF0Tuh9NJHZM+2RzoR0CbLGh6mFyyXLOERWxFJ4G3yA8sA3oBbST3EbOzKF8yjOAhBLlFZbF+xDi4YAm3hkVDywjiOX5MFJT5pHGMRyeEE0PJSp4sHSEMFIorWqoXMS8mxI+q/Ih3WPWGpZOhsycudxcBPiIJshzFx5FMThUZWH6og6xivGPBAFMg7rIuYTaaf8EK4ktRiL7kVFxNq8fI8tmkZvgRy40IaT2IbzZBQ1YQcaZnLOwo5BCKMrGijl6hLtCnbw4tuh28CJh5abUONqka5oiioofzGIWE0mkKu3IVWq5knwWVRV/AgIt2J4hIUsybTCWys/IzWhaS0u/cyFDxZuaPtW2tuiYjicW6wSc0O9zIyuAeAiCN8orEManV62kBs/EwkXZpiVRBFD+BO6VcEVSUPwXklyVDzaIcac2ocedHSf8sQ5LdTqydECSiA0WpfZwQSdwkF1XlCB2kk7dtCOo6EdYbMqTZJnhBXoqElwSVwpaLbydJLdD/pkIjtXMG+XiB2VJvAxP2n+UDHcdQlI4mR0PlH+LQoCUpqB6X0h/fM/eM/eM/fM/fM/fM/eM/eM/wBzP9zP3zP3jP8AYz/cxeiXa3ENKbL/AIgAAAACqlNl6hCICcGSGihsaROPTMzMlLOnoCAa3JlMXlrhL/kQQAQAFkF2K16P/wC502C5bEMAVSvJ2D5CWkHkS4kfYm0U0PU35BjlAtNJVKkRA5zWEbKS7wILJpoFwWRSSLXstfBfIxjnj9BWaeXB2GpwyRPkl0TF1IcCTorxaXnRn+PwM74TLG5OlyfQzG3HPJDTJ4ia0lI+o9WaW4JKgxMNn6aTgXESYaCEn1wkxFkbBCFiucYrGVs1KO1ZOZNjE4IkW9oqJ2I1cI/IolxreEW0Zw5TQ9d3ZcFwjt7BVf2wAxNOUDBVL7swhNyWnisUZfc4qtqnAE1nucDR7xhG+Tzs3QItCSl7DrZGJIvAmE2YgOtL2EtOVTK7Fz9shshUcbuCIHhusqa/kRaSGTBkMimicKAHKliEw33hMl8A1eVhbizLNt5E/Y0IYEnkcGXgIbYlwomGOblGPd+8IDTuhKY++H8k4rkUPE/wOFYtrFrejm/Q1odLzsypw5BHsq++x09ebPYhUmpMzMF9GqezQkYVOC/kms03GjA0OQIp5B0GWZg+d2bfQgKjaM7dqmbDfWgcDNyh4wWBEo20qSN7VxAWOkN0ZC3wPdE+4/zyMxBsprL4G1JOEZJejZZLklyT5MMNE+faqf5KHNtkCBhAaEy5E2rlJTUUx0KaWkdwldaukbAWz6l9zAD3in/InezlDNEw0zTQrIuJpFwyiHw+5Rl8zZD9kdvylLIjPw1yz+SBu9LExZbSq4US5kjaAqLmubblkdMc/akIKjVBzJKWRsUI+2Gq/gsVQNRDsQwvkEf0Ku1C+xJAuxLtfsV/shfcVxSXWSvIz5NVi5JNOQu7odnCZmlEvnHcJf5JZpkZX+UdE1ZRIi6Im0MSzKFGD6zWzz+SEZNt2kv5+4xsdcZReIMH95lI/wAzga1YyZlNnlvMFHcyIFkkao4Jy4Z1+UnEQyOTPCWPyNZPXO2/0EDtjoYVBYFdDREciHW/ItydBRiheBX1OymG45R9liifslvhr8keTcq8mEfwr3I+4sdyhrln8kfScbtIkgXUYMZ3kOMNiR65q55f6BWdlpy1I9ETbUJKMF/a3Nm+qtlF0Mg5ST1mlYbnKoZiI7YY+hhFfcuyZS12jmPix1GmmZ9GDMhvDJ1r5oLGiHjcn2V6otX+YNwwuD6jd0QMJUagIhzbvc9Exp4ApzSib/3WPu4bQ81sogDORsKUxtUxsMktLqrka42ASZLKpT2Oz+gT/mq2IsQhvg2IxX+2RQTSiiQWzybZcsdBvXxjdG95z8GNe4JtnPMDUsbZijRFyTlkNMlZjHkgwyhWURB7ZyW240FukQmi07gtzFEgQBiKyOgYsOnj+BKYQ9hwMfIWugelzxSONrSoEH2xKIMTjvoV7JpQlEGkxoHt3sSjZJsQh8CJWQhEaAWz8iCV2YK71FUwgglEdbv8jg/UJRKY558Bc9LNUsNE8MuFw2hK3uSx73pbLsbopEWCSoDuFRbg9yc0YOhxV9w38MQZsudywZTZgvPUW3FAm3DJWno3nJTGJYd1ifRF6NEhaBUt8h6GmnD9DIsqy1KTstHoZEGGTYbJobsmibJgK8dndwxrFoPLdH7s/ZjLSHkztERohZdzYFgA8tjxtBKhjA1RU7x+xP2Z+zN39CSR5A2kZGENkL9EtabLKegydNBTkxlNibBaC8E0r9OhClNpr9gPyIeG71KQpSpSDU7e5jEbhCWkbvUKSaxab8vUA3nSX/DErOdazl6HWtaKuHClLI/+BrWtZ1nfpz9ONa2CmmTOGRFj/gZSlKUpvIv1Z+jJjK6VZ0Hqqql+YakkPVj2WBEVkg9JCmuzW4xayEtDUSdk1yZOOhu2cD3INeJ0fiwFpibn+RxqpOOG9PI5USkh0cLCTg1uTebBBHnl3T6JTMLldu9hxukG2Urz2Nc3F81FgVWVG3G5JxNJRNZEEaMeAbinXXuQNps6+omEusHRFb4C0Y8KtwRuCZLWCWZyviXAs+m2QRNrNREYRhdhSW4kaXgJb2TapwVhBQjtnDUOSyWmlLSOTswW5GS5u5qRpmIJfQhYFk4lboV8ZHEcjSb7RRSeraz5H/JJCe15RJNV3ZI5dEajoU+IbjAw4rZ2lY86yjmAmTbm+yLscZz2cdHI4tzDknJwGTggIGhVcCEQvky0GasL5RZOVMSrNJPc0s9CM4b9nGFwOmvnC2ZlUxPBI24DaTjOr0jwWL3tBbnQTb7V5jcjg0sQrwPdBVbkOMC+5morSMzacW7ZdpiZhti4gXnd8DqVEVmCCE/BW/iP+f1n7i0PsdK24Dm7Tw+RoS7ExlqFeNnMlD7smWTu/gfcN8RaMUfsEC20+o9NoSWiRziNagJDEiUPyxxsbLyRVmgOVNDgK3KwufRVLEVx5PwRvEJDjm7k2ITAcsYwFNswFObZPwxJyQE+KYhUm9kJeYUWAkMiWzKxjXZlMIQScqHuRmiSnUipCW08DmlawkFmCWDoRiE4j8wI9N91e41dsqYlXTNzG1Hb7DE9K4bFWvpZB8cuUwsNUNJ5L5a+wwUqbI2fnwrUufnOJG9GLiVk/wC9DNGzDKNNTJQugin+HOEfSMCGKCV05HBmCVIQqhZK8F23I7HyQsB3zlDSO8UqCytkpbCeTzdkjLb+pImul8g2cGXLGf6RvAvsFxKxjPilYxqHAPG0nkfnJlJiYNGUSGJ63KY3JWyjs4k0cnwEwT4CfES4ifES4hqEnLeOAczJLmmjyLn2CDdudQKSJ5bKJNwlYlnwmSvend+Sez3yRecG08kOYIbUySnOBuPcvRjSH7Q3PgJJEsF6VTqVtZHd6SsSPgGkToZak3EyGs6U0Ge0bgtLsSFjCVjGtDbaIuXBuJLFn2EWHQPMSflC/FYnpiFXKVuhVYnBLYpHkSKdNtEFpE8nBTskgzIIWi1zDr/kXrY+MUSOdEDQsDQ8lmnyhWglgfZHpUiZGz3B+gYs38f0wRveGv3OojsFUCTtwSvcdA2huiPcJlMKbjTkCXlmbeiS40ljUGGglyZNFTjJcG5I9xyHyQsnDBK6J5F00ICJDu9Ek8wRZhBkwSaMaMWNsktGB4GktdC1Q7GmPD9WAv8Ai9FlQnxE4JEMrV+ljDm6H/Vid/AOqedZoCg5bCMZMQkQJCRAiHtPYTpZJ4exPsUO2sHLpmw2hCVfYku2vcWylqNhwxjdxpcPaIbCWW6CW99FJqaXJFtpEo2qThsIC83D0wY8V5Z/QA8vyODUyPTIwxuSYsSxch8fI8rx9tMIhMnUTPuHp3H/AMng2ELka9kkDAjWCNVKcptPrVSmtcmqrRCN0fZ/D0y2C0ejLQselT6k2GcmhgMjHSWrIxepluZR6m0Ri9X1muw6H6X0er03/wCD1wHjRk86WQWjHosaL0HlH//aAAwDAQACAAMAAAAQMNPcjDlMWZ4R5nRMchV+ySRckBNFsBQ6K+jabzStXHjC+D+gGVXAqqf8VDQv5NC/1ho9BpQF9p8b4kHes5Gva5DfedlIn/kneUDdj32+rYE3CvJ+GAWP51/wzbxwbD3GPBsARszJpAMjGcHJ3VTkEjXbg63kdu7s7vVbnDD67a6fVlXvO+7yzeYfzqXzyOlYhMHnQuXnfuqq9M2C8SHo+JhAkzF9vFhc4bqBiI9pQubNzh2FqsEI9BsKlQFeuPc3AAtF6O0uvfwNTWnJgmzEmIWh4JiwcNzCQ6+WUuuH8ev2eOOag9wbYy8IPujRqUjZR+DaUejvxyKiQ59KH1umIZ/7x1fum9TcdyJxu0HZgiPHi1bEUGI6UFHmWr66sA9Ix7ALaXQhAPUnShwZFkQP0pFBnl7+qHiX7IBOkoAMH3A+mhihaybkSFG122jc9JlErAqpJGvD9xtZ7pwAwBbyxvhMMGzPkytzDKkZOi1CBdT2fEg9aoorOGQ6pHoGYmZBx8OqvDjPkcatXTV4uzjbELKj1x8tGthijY4UsmMdaGcdfrglsSWQL5WFU9Y3wlJ475dXNuqFop2D0oGXchIBm+ttS81fSd5PXM4oi5kogTUUwLNMwOacHhHBn44OZMQGYd5OEC6QdStmCC1Vq79R5QOoaYB8RAaLXIliRxbWJm1BqBs8WggJOGE+L3GTiC3088wXySqGgpoRV4R49JqcVSEzANGrh9gE0kYgq30HqyvDW4wWz898eGjf/wDj3xluRhQLA33aYlAb5lMfU/PPrAPBlz3gzu2WBv1n/wDXtN599+rRndCsamiohlgq/TofFewQ2bxyDwtfFmwUDR96l8t7v3f8cMOfJ+FdBqaNllOfJmOrVHUrAR2jMaKvGMsMdTjaa6/MP/vmzGKIM8xPJdR43pdyCV7IbOX0dawAjWOkk1uIZjCCsWdWBxo6Tohy7uONCsoshF13tQ2CIooj13I+6LBOa8tFysJCBip0LKBp818JJKY698qENlhet41je+pcgKL0gkoZYyAayeRTQ6qSr9YSC69+4kuMeJtmyNBmU/Fc8DU5ofsyli3Y7UQYy6Wt7ToXWduWNvsa58rQ7ANG/VLyAU7G8UlE73CMnGtVxVsBSGqwUau1qYw2P5+xifhEHwuky4C8AIoY6LnyGBk+8tgsTDQyV8Mslw5HnGES5s4isgRXo3DIVW3uAkMq+mbQdM/uMoBnlVmTCjiNPnnhu0JHixJZaF+Gd5T3dNdoqWTNxebfypsms7pibCw0R9GwjVI4AEkkAm94guDfwLe8HCVYyMCYvKpPiJ3pi9rifJyrVD/OmrwJ7+Zq7f8APsiKYNamWX6xepJ5S9SBAdKRl5fmcuD1oDY3j881X2SDHXOwwwcDJ96SKekzc8fBdiA8d/8AvP8A+GH8D0KENyOCKL0NwF4L8OOIDyDyMGJ95x6OH//EACcRAQEBAAICAwACAgMAAwAAAAEAERAhMVEgQWEwoXHwkbHBQIHx/9oACAEDAQE/ED0X4/1fn/U+mPTHp/q/H+o5UhVJW2Vl3pv2h+7Xu37te5N82sLd2sg+bfu37te7Xu/S17tmPsnLcv2v2t+7fu37te7Xu17t+7Xu17vYwvcMVPste4J4eBx0J9y4ZdT27afc48WRwNbIOUOhIeTjLI6m0eIfRdcrbpJnxbS04CyGsN6t3ckLG8WcPAiPD9TEp9TZlraxyJyZt9WSv1D9LeTds3xOosddXnqR6TefGR5k3gcRvawnUnmcXY/Lg4Yi2PS1ovCz3x9Uh5OCY7AAaMPeI2Il/wDdvc+G2xbasjMRqAHcR0lvmE+JYe7YPQj03534yj3J4WTJau73e78GIurPufgV+pD5v0l9rUcPZOH1QD+7AEAEebeyP1Z7QQ42NkS13IDjFk6SEye7xbsOXpY9kpZ5MRdtyPFnwYlv8clg7mwgdSQz65dg3ecBb1Lbsrys+KC2LyuHefszmz8uLCI/W1IeSJaxXzMn3bfceyPb8ogaKize1mwJAEeFljwe8TbGe7xPB3kpjwMCISdnV97dxDqbLwgg+SHB8GYv86mYLM4yDbU1ZOryMx64eBixZserFj1P8V3dWaEXjdFHOpOD1DD8B1NnB8Xjqfo4DWHLYI1ZxYCXTksXh4Hwy+7Sz6DAm3RY26Tu6hDG33xHsjc7Hsv1tfuFVsBt+l+8+2yyybdiUrZCIIyrqXPC8ZI3keHgfH74x0beBbEdrWBtsiTYOXghGHrttZer65bMH7jh6JfVstik0hPMQ2ZRHBlljw/BvCjZVjIDu62cV2qwLaW2n47sRbl5OB6hlwcItt5WcQ8bd48xCMF3LqWZlb7s+B8/DTtgvVdrsAgg931V9a6Eh+JBOJ4SayfUh8c7bjHIjW2Ae7t1YOsM6vG0O8OsTh8xrv4PmwWbBrDCwbabwct420fwOq3vjF3hmynT4aoYOG6w+7sLc8Xl7pHpl11DWybAlWBbc+D54Ksg3DxObKGxMGscOXj+AjxkMeJ3WsTPHK53Ii8sx0sZzvq6ewP21mNTuxg32wdSWWGDsmHLI7hF6tGJjr8FvX8Bbkw797pbx36RxpfvwWBvwyy3n1FtOTjEtvMJ6CXwIRq7sIh1eMdEx5eu7R/gGXcBYWFliQjj/FuWXnIOfC00wBaQ3iWUY7wu0YDpYM6ngPEjNnJ6IYdcrP4hPSPgB5hhaaDyuQ+ODjbdxx4FJ7Jp1Gsun7kldQKbbvkyljYOXhyuss+J8Nl1kfAr4gutffwXXg+e3Tb9pECSDIlel4yW7szGbl+4nT7jOSDtJeWC+J68PwJLLOMmNW55sSTzfS41/Rbw9Ed8HJ8fJO7GwWXiIuq5IAgwru0JhFnGXuKC7+rFjuV2/EB0nVsPBAIGIsM92i23bbH8U4GThtj4IAQJgezcbpxtAk6jzBJGTsS1vRNd3Y/GWWWRwX6kI4A1s9LXDLvBZvJblizxZgllsw7Zw2z2XrJ2TcYLUry339o29Y2ukZPYwZ0z7rLxbN92SPhllkE8aniE+eNVc+CMz4agGETrzYQIH3dHUs6TH1ZCSy/CX6j0Ws2VkkO7rUmdQs21wbvsS6ItT8XEibynPDc6tnEXcGS7+kfQH/Niad34k+wlG/AU917ruyD+71v9SR3/ANSTdP8Ai780/wCL6z/qFfMj3tikHmFN2/WRN/8AIU3/AMv98v8AfL9f6j/cn/cn/cksWUsO3LsxkEp5E15sWZEnVhAepztWI5HsbIzJUjzGHqBTudo3W+hL/Gfzf4MhPDO/phd3LTtn9Rj/APLUyPGML2hFuf1H3lWdfUrkMMz+rXqRM/8ALDGMvrq29P8A1dfAxjvG/wAGdvY2C6Tv6vDMkX6gj4jfV1ZqEADfUI3XY/sQrj+5Q48ZCYW9kTdWPV4ibn6uwbPS6kQK93637X7wv3BfMJ936XRu3736w/3G62Md2/Zh/u/e18Mi5se9kXzPtv1h/uR+4U0Z9l+sfav0v1j2X63QLOhNPfq3BpAz0yFhpPEjL7eWM7iy9c7djhD2X6QuPbICwsLCTbED7uoJaTO7p4t2rVu1CLSz9LRxkJFhJ2K3bhlq/S/S/aa+YNkM7ejdATba1ttt4OjbWvPbtdcbdxy8ltxwsSZ5bbbffxOmP4Cf1aG85zpx548cHORycPJMx5nycM/B/wDgFY/B4//EACMRAAMAAgIDAQEBAQEBAAAAAAABERAhMUEgUWGRMKFxgcH/2gAIAQIBAT8Q+r/T7v8AT7v9Pu/0ftf6fR+i9j/RQVf6QUyEEJLaI9EeiPRHokUkRERoiFTggj0JPRBEQ+iPRexRxEXoi9EXoj0R6IIEnoj0R6I9CT0R6InA19EeiPXgkMeN/wCslti1mgfkF8EkYYRhFKODQh8nbDaJCeXhBoSb4PkfLBZwxuIZN0zY2WFyh5f9AlMchdi1wfQbvmFEUUzeCCWkIREG0uSRoNHDpr3kNs3hr4HfQzbGux96I3wTF5KjYuSOhMwYguzH7xdzOfZTXY2lBHKilY2LJtZoQhCOjm3hwNtvQtqj0DaRMIMkkktEj5ElJRU0M7jR35b90JZSs2Z8j5CTwi+BJVCWoLoNEpbL6HyGfhZ4g1J6ECKqVVQ1bolMtDjk+xDtCeiZoQSo5SnflPfbEMWzdnBlicTITtzI1RBJYfWZEQ8NTrFRRnLCwuTErAvUP1nwEmg0wiHhvAU8b3i5elBKIQYnBdY5YJ4fYxDWvCUiho6E4MfJcFegNxNmLZVxD9cJEEh44MoWIiYeKLF31F7EMU8IcXI5gQpywhhZbQqHjr2V7KXZ/wBEXuOYkI1SGqjxUJCCwMJpEwvBjHzlYh3sRRt4bhEcOg900PY8vwcClLnokha5EjhuHY9OCdOIk6RINCCRI9EEEoSOENwjA/CAIJJCGGtjwKXJDwLvYh0kPD8C48po5wk4XUkPUXY2htBB0akOTLixthogg+fCrbCKcsdhqHChiipAVWVZsbjg14FwLL0NDgmiHoIfAK1BFSQ1Y5CkROvCD7CTDXgcETeIQnrKUXePTg1R3iONlkNmJ3Dgk4DRx4cModYhDmqxJqiyQzmQa4E7ljzOeCxXC6wJoJFHyfTHyUTJyOM6wiwVLYrYW7Zsx1DCt1jaQnvwT0JcGvyCXce0xadII4WGL5/A7IkyIawyD1UgxBvNxso3WPkavOE2myGJxjiQsOERwGJ3wSENsaL2KbEuGjiEG4qb7+kpOovsbUcjkhXYlUPFCQWhMrQlWmJHnWMqC4FbD62aG0JOsUSCQYe9jrD1DND2SJIWNuZq5uW8NCGie49RsTCEMpSe/XgkKA/Fq0EVQ+Bj0MJUQ5sIaJtmxo/Q0agl7Yu6y0Q8iylcJy/ilYbacKyihP0xMxiRsHeUIN+WrhpQxuljG4GrEqXTY63wXQUAx9TOscsIQ21mAvF+PoXR+DOJCCgpSZQetec1WAaoiGjnwKbrG10KWySCF2qXYqppEJUI2IQ2dmeblkJlVD8ENWUuv1hiEoP+ONgrG30xI7Gz5wlIxc5CTQYrZEx6hi16GmLCXUs7hK/G4JhexVhWCJ0EzKZ2SE/DErHxh+C8FwZbEsMHsTSAkbHLC0XXHR3mJuGFnPRdMa5BaQhCG2DDTGwTgNYVsTDkkJ0QYk2MXA/4Nd5gkOLyiNuCqCKRFDZIgMTjHpDJ7GhpNaFIOxIBkieTGcBdkO2J4MV9kk2FxmzQh4SvBeKy8SC0PThSlGvgW5ZJBpTaj4IdcKiYiGhx5NhscWhtPiUE5HwQHmlLiQWEcjYoolKeF34SG24WCuCvY4Y26HXYiY2JK+R+8QXInq0+gvcOu2UaVEOxG5Y1diZ2QLW2SpSTKfUlwxOhsoQUUo3honZqLUjBKiCWG4IbVOxB3H4Psb/C47pHsb/BpXAnqO/9Pk/0Xo/0/wC36Iaj/Rz0n+iYtH+lOW/We9P9YnOR/rEnE36Jasf6KTbb9Y1qpP8AWMOR/rG21/o0j/0xpcn+lOn+jMR/o08H+s38P9KrSf6adp/p8X+lfD/T5P8ASmiGivChqWism2V2OFZx2yoVlfs37L7FXELdoRt0u0MYH/tJVNJ9MaNRhhrCNXRI7TR/2hR2jbtCe8ojgxaFGm1G0PmbRFp1GlJoaOKPSVHpULblCjtC5VaENajhKidVFKqErrbFO00N+TQ29ocvTF1TQ3GyFHaFbraF3P8A0cfI3HP+j1YcbYvZgoetBOqrLgJNDNR9n2O0W+/XH6RekSuy6lwuPw+4nOVBIJnRwPmHBaUfSgksCXyh6wmNAt0EtjpIOKtCkQfEQ6D9QaFQnBo3EIKhv2kN/CQlrSElQiaF6y64HnGJ8j5nxLhBVoanJKD/AIBBPBiWu3o+A1QRB7//ALw27iom4UyvG/YtKUrNi+TEtSiOifcJOROcEvJBqqYqTGGFCV2Xsbo+B8RJ6Gzo+B8j5HzIAaODc8C1tsQkSIMTCVJCgksrHL/FDGwY2FQvFDlBtyjeLL/BiR1DEPZC5gziHnl8VlYQxC5xeCz1hHI5xDxx/wAGcULxWP/EACcQAQACAgIBAwQDAQEAAAAAAAEAESExQVFhEHGRgaGx8MHR8eEg/9oACAEBAAE/EHRLE1h/EON5HAPX2gKXHh/TDKEO9vxETLh+tTMFha4zOtS8SCqWX7Sw0ag/PjcLnZ5/piCuJRPW/ES6Ab/4wHv1wce0LQs09t+0D3Pu/wAQ+N3RTn1xAPQQJ+IbBgBFNuPL9pljjR3H/hyiUDLiPTQK4ojBSGsw5V3WTGq/s42agCuNlgIBh/XUz/q/E/df4n7r/EcaHx/TOqP14jNH9eosx+z4n7D/ABBOLv34gyKfofxHZq/XqVB7G6f8Q/cPxP15+IMa/c8QP6H2lcBYDY6PtFJzfpxKtje7H8Rpc7U/plL9X4h+u/iD/u/afqv8Sr9H7S/f6fiFmk/fiX/ofaK3+n4n6z/ET+z9odp+vU/ff4gX6v2n6D/ED+j9pbf6P0lrJXP/ABiS7T9+Jaz+74hwfoeI0/sfE4n7vifu/wDE/a/4n6f/ABB/3/tB/wB/7RsBez+uFXjpc/2hmBcV7vtBLov98T97/icP9XxDvf16nV+74j+7/iP2f79To/Z8T91/iY8cfriYPLdn8Qd/c+IQyfv1A1+kupb3v16iRUeR/EWAYdD+JfjH+mp+gvxLX7HxEv2PtGn9j4hQEvI1v2jAaFyGh3ClNtHCVDJ1jOpuC85u7rxHELmmnmZHA3h/LGBMju1NFMFLfRCGWx3jFwNHQXdxMwFAwG/M0slOlXcBsFA1/UwdSaLvH9QlmmDCpX3RZilHldzAHs930NiucRihncqArAQQFxgEVKiuXl2/xGnNRt0J+on6CeTLvKUdqBSAPvKmx+qHTmdfAH+KUpgs0+k8owimWXUQlhcpfnc+amD6IBZXGViEvMuHmYmIpeyBpanaD6xHY/WM0z4YJQOVR+hHqVuHbEsBcjwXFosczLCQQ0DYINwE7uZKATyQnMRF/wAT9JPNgyAe35gnn5gUOPPceIAIPvZDYjcADR8T6RSqgeh6m4hhouBaEUqBsnEp5XyFZTPEqq17SkWtIubB8/khhaD3i7EIi1T4ibYexDN5KEvMpCjLd06+kqhLt7EyIYe7cJV3jJeZbQpHxZFKW7w6xG7MRw+8pKKtfrANFaRNDTe3VRbouiBwQ4F2L1mKtcFz5qVsoVMeIjqOq8n5/E7IqXKEPAcH1goJeAJjiWlvRDcLH12ZetHhzHRidjNYfmeJPEh3Q7PtGd/Ep5+IUl0xXgwJnJeaP8+hzjjH0KvUefvC+REuHWWcRh3653gSEO8GKlUirwOgYrRRhYPfEeuI6hOEVBfoeErW4rGXyXcLmN4bJlN1gL28VF4FyQV2TLs6fXvFoPTluEhGmojOLle4jzKefie34QTqF9kPJ8zx++D0/MBBQQHyRWgzMuQ9yV1fE7ftlu0t2qFuflBvN/MsajTNohGFtJKyKJmXEVYx4lEAW5jPiCI8lPtZ/UQMBTwS0tUAFUjgPzD3YnvNC+yYgRuHWcKEXVbYA7sg9PAYbxBYBTFt37e8NQql2qpdlMN6zA4tGyssLCe01moZA3IB9IAM1rez/wBloF0N8ykoJsD7SxhoqjqN0ynFu2+CDonA0Lo795ZUQqNY2/VuArnBLjABYyktVdwWniDGK4poNkM0Zi0iS5E4i1lW0BBNOZcLTIqqrvEq867Uo9mYDaeGs+seoEUNmDRyOHDEcRl+gNQRmO46q7/jLjF+gvo+6mi8kRKoRU/w5wk6K67jQtGPUsuvsYMuFGviiTsTDu+gmdKPDVynLu/yRGbwe38IKahbpf5Shh2xExysbqouViXwEzlHBabD3qWDkc4bBLPgGnuP0I4OS2l81L5ZpDMEEbHUuANpKdks7IdhK3hgG2CAO/wIdZm08TYfSzA/0MBvL2UeNPrhwFyofhiYMl8tQyNEKQGe4RlRWG8RjZb0kGbAqwbhCoa8kzSp+SjFy3mXt6iizLtAvmFrbluYAuiqoi9SpbB7OCy+AK5O5Y6jt8xC0zZ11MlcGWkbOjezUDhqsZ2S6g0lvT+4gwUl3JvARohUjd5uZprUnWpQtcrV9zUlU2Z3qCoNi8oCzYdF9cQ9QpT7fdli0S1l95YXRb7sfEXDC9z5kOINROMpd1UqZo8kBpm0LO6lUC22394DQk01UdbiFhbQH3lbnImB8GIpSqzm0o6Hm0Wu48sAcj6wp039YYRpFzRAIFdj7RpM4LuIGMXmfljyfJKw8IqtLB3D+Ihft6lYUvBj4h1BfaYZW9FQryn0JYab3qLw/VIrcjmyL0PjEqwXTlcoEHJThhUFu1wxIwfKBXcPYKwPZI0CQ6JBn7QdOXARgZy2/aPM31NPAlzKBQ4O46q7IX2Q7JXolTYSqaItyJa/jQ0k+sRsP+aMarpqB1thDiWsfOilJfVA/wCxM399P77RbbX8RFUfcIMMflhsNoDsuWuuDDM5lQqRYWal8ShNEJSqyHtcU41w+IVFv6paynwrOQE4qCngjhTa1dLglyBgrKv6xQKw0xX4lANO8ykAgLefhDau0SwsvMBZxMnMMI+OBPaWvsFOKz+1KC9iXdty4iMUOzRcM1VRnJAQaQLTEgNAoB5JpRoJo1K2axBVhr7xUU4C2I3tbhEaODUMBLgEFRCypQEJnqv3qINRNoFsq+sCYKI0qJ4phlxPdO5L9/aNzh7Ep0oEMdqQ14r03H5jzBlJnfzB7O41KCV2eYD/AEQBoIeghlOpds3BixlJ9U9j8T2PxHwZQI38ojmwzZ+I3GZ4CcoFBRLBt+UoCnVfCWd1vREQI01pAJVdxYU5aiT6zOFgHgHT7QO9HqDyfLL9l/VlIDHOW4aGwq1WJMHjGSVGmZNmiEJLVr7xwI0ckX5Jk4guSAXDE3y/SeNmDTFpDim52egAtNE+0K7ooXMzCVA2lL9bhEC+iIt5gxm4S2tHvALIaGQwGvYhGriGYpwzgRop6YIVOynMpNnsqrlpUsyVwwcXoXUUoFGM5lmxvFOM4SWW7LXoMMgMli/aoIqWnGeZxRsWe8EAANmC30Fk+kzYfTzH5uVocqo5gwnQ3LuXB4mGDBKHc/8AiUHrIxByvmD0D5lj+0tcEvkEsuiBuEDzP5CVAG7vCNkImEGlhDQoozP0j1+tAYfrGDfC0MJXaxXUEHJLNURcb2KMvZgVBM3GeCdkZyVoNG1isOwhsm6uEjGLSGfaZLuWlMrVwAGKB8xs4WdkKbK+sF8k9xLOyUdk8kl+xp8S28nYQbK5hJecEvFpBbMfanR2xW0Ow3Mq0vA1NSOAYTELvKC3vwqNWjTPiYQhRvLqGU9uT0qoJPKMpcstZNnFhH+JT2qV7fmUdx8pkQNgPGGYLxEqjg9wWcczrXiZax8Sv6QOonUx4g+o3UFqdlSowbJcTSEVANksIe8RQ+NGLJ3BeCFyuEG37xdKcBnULUAu3Fx3hdFxCQIYXuEErBm3ftAOuZrpipNJTa+dR7jldspBU+zBQSzIjjklCq5FGsHj3gJVOC80wvOu76uoJKHButQwSYygVYy5NAh5U0fmWfL3MJ1t6JGNO4kNX5hVB95RMykofgJwO1+ld4fMKIC2YUGLMILBvTLj4uLAj9JcXW91CgQzSqlIpRRjiKRa/wACMKs4UdLbUrOByLwX8IwSwMcZH2hqFYIV1ccVUSvJbXxR+JaQxVziP3UpkY5JZwTDQRrRVdxHMwyjqU6JRMhVPZiBiAfvLVJbphxHAa4D6yoBYhK+fMyJQMvB0Q0jNbagNtCANg0VzAwIXnbBloMLyu5s5Tddx16wQ4YRCPqTuJW1PrAow4Ny0BeOCDHXGxK7QRwy1ofiFXUljymmFARtOk2MJLhqzeIKrf0CUMl+kbcfAjfj68ltH1k4T7qKCM7tiJpoo8zWmNBNmYo8zHp+Y2YElOpFh6ju0S1TV5z7RgNwJqr6+kqQ4pio1dwdFHUdXhJFKFqgNsvRV9nUF2W1cXjQaUjRAKgvnnEZxYcLu7dxKTZb0kKPSzfiAILKoOWAWzQIAC9ou9ai2NXgH6B+8bCwouI5tZlMmJbUNAilitkQHpEPpCU6LKXbBRuIwozj3gpqBagJkn1h0b94Alw7agmoV1AOocE1q14PQRqUrV03KROUcmQfKyoo67QqH5lH+T9kdTP4go0Xg+Kld4Bk5I+EX0wa3QrjFEBXZU0z+6R/4aG/Kn+UoTV75pblXk+DX3goY8kSAuKhgBdCtvEVSYHHhxfg6gIpWVLy7hqrKciZhldfRLjF6Dll0ZyAa95uEuGgmDd0XAG7XKruGapOPMbQQBgeYQteIDUXNwxrUvs6SBGkk2hg65gIrOSKhQaeD3gosCOkgUl6mv8ASU25JT/iA9zXka7lrucHBn2CZe4L6k/YIPSf0Sjos7mVUgcVhjRdAKhsApq5mC5N7j9brTpCqhfMsgAvMt04zT3NYqPvHGk2OJbyw92UrRm6/iOcXcBwQTNRfL8TIS8nzAzHDUI4DBWNZgo2Ww3f9TULVqzZLwqhxyuXDl2yuMJLSxStbeDE2mKW8NRwCAWPEPZaDNGA/EqRtfTDPoy9ksuOVU4nu9ATYjNZ9hxicy6IqkGUYIDklDRAGlMvf2n7WOg/mBuQPmGcYfOIPkygMuotx+J4vxPHiXGNH9YGChupQHSIsmQS1b+JTLbYECmUopncc6G+FxMkofLB8vuojGDLdsQZJlaQsoD6JiCPGI8QOoANU+eJQsr6S8GKIO3X5gqL5Ir9qGFu11uDZAXVbmuFkPEUWPA5aqBrm4eO4SETkWUkqo/eVqat1DZN4hgAcBqoQtNgG5TuOG2KXtlhlUmTb28X2iaAGEYGGmf5RXisx9pUBuyoCJSYnPmABKXM/wB6f7Uo/ug9w8CErDKeIC1WzohBCBrAyhMdAxTuqsEoSt3i5kpGgN2zb2Ie41Nkr2QCETycwxxoVjV8ntzAMgZZXniUcrbV5aiAcOcGfeNgC9Ef3iLGytDsb7hBU4cl8+YkasDLDKqjd84lIFvHG4nWUOoAHYKsWPpc0VLY4JzOGYkO4vtHcPktkCfvKjdJlGSr4ZlvqGBCvcRNfWGOVYm9X1izGfZ9IpzuJMQ4gnSl4dHCbhfixOh1C0JLstly0gACYaYwxDPn7To25RpGCUPKAuu8xtqt+8HaLerlWG/VX1MMxB+jqGFwXj2uNUC3JmFWGWRhAqKjGcqlOSPPYkiguLxB0or2iAg3yEWFdJ1mFrIvouogDQ0OJbpBsSW8NKcQGK1vCZIOGzoeIYFpQTB8WsFC8MaA9Vo+IQ7gWkclcvOcrXYqSHnpldfoKq5iIDb+ktDzKkSqS9y/ZHyItFKXjzBC7Bz0w82Z5rJod4PNYZJkT4lKKHCWDuDRapuLRQ92WzZZ3K9NHsiZaPciUuNGZV/lm0+gx/5kwFt5qPUcJ0IAC1nrzCjwWRJSOa+VpbUw+vlgBCz5IGCwX2VGgDwrhFIMEutBmOhdlTwTJW3EqYUYoGrYP5lgx2r3NvTGO4qSDbF8nCh8A/mI+2y1Z+xGj6L9Hu9Gq31gVBYv3mNllDCna/MO4UJbKYuJToE6fRplEEtAmQPeLLKi2omINg3djA1ncvqG4W9FCFYmWXkDictRhghwBrREsDtGoa10q6JiClckpDK/eX0/VHuzKyAyt9VBsL54gvoawSbljUXI/MFQtDMui0HIaSByt0Y4Ch0dsKQiXnBllhu31mqEWD5gtGiNbwDCOCSJr64KJ2tZt2hAqEPdmIld4t0+k4PwxvU9ofWO0FGmU9iO38RLo4x+SLRNdKnSpSzAlNPujMUPaijMD3Hir8ze6IFuUR0isc7jY1YIxidgJvnENiLHZRqI2gvVZl952qtzPM2awfXERz1Z+YBpgLAlZg8pKcW1iErWgFOsw2y2PEIpaV0d/aLCqnxGA+JiEWn0LifCjipmYnghEQb/ADEhHGFxkUAGApzDr8wAZW2zopbUB41Y5DETCU8nqWP9fcGppD0PGpkkRIfQsehBHNzGtjcC1uAeU9odV9Zjtle4NzLI9Wofb6EugC3hqUiDahiAsggUDzcYrsRClNal8oRuFDeGXqKYATpi53vapfldqniITYE448zw8TsxnbVPkDpSBr5qPhXUplN73k+Ywouj5iQ4WK9RFh9D+1wm4rO7qPpGO/3spYIx3DUZviVcZaIRtZlIbGWaIEN8zaGskVvMuIQ0KfEGm2xnzFZRwlXyPEKAGdUaxBrCg6SxSqxHxCuK4c0bhJUdjiZUN0ux1LHtN/UgV9AyhKde+r7DFnxLToi3OZMhhwvcMEBmXp4AESD1RnB4fncXA7grzV/zMGsglHAPnzNF7WW6ltEWLYZr0i2y+8xBQ1IebUYxm73ejWEHGPT39JxHD1PzYgwWytzkJfyku7RBTMBbfMQBv8y9YZWwthljpljm4P7AHk1iE1QENGZopiEgo5bgUx5WEgqbhX0TUsArCvrxKECbBzKDn2AsRgiBy6I9QtS39dssSajR+ImYl1xEsBiNaLLy4u04v1EoPTSHL1+VMHokNenHosnEJAN7hA9IZl1ABitX0b9TWCjR8wFFqdFngDsXiXWYL61KmXXK4DRqnV8S7bFGW4jld5slSu1bhugEHLxEUoht88RXYqHnz8SpmLbc2l4mIDmGqJlqsIQtsphuqYrIrcSIjUzaVrbMgFzG0W8zPcUaygczTBigXRpzKJ13YHse/Hq++zaDzCF36I6wURgg9T830vOPCnVf3P8ACmHXxywccCMRV9R+kBfcCbTzCZyQTaPvP9SZMfNNcj6zmzvy714gpcs2woJHYEVqCDFX3BpTLsx6IRMNwDDFTq+4LCjLd4lILuOIgylbG3Et2QmuWIR9DQyiAvSXuoE2QQBv+UEdQXKCBqD6v5U2Hr7ehCUDerhq9EFY9fOwYIoqIRiNhNGVmKhQN2uNJQpOfqQMzZlV6Ig6ArUCgOmw17xGgLC3tGFbaG+oK4KUFuu4miEPu3LYKvYIw5C3wXj7TNXoJzFr0RAFFaNBA0qVyIBnctwLibRTcO5mW4hNLtATKwcHIeoKhiTq9h8BOyUruM64h7kZn7mD6xmQIZqJ6hCfk+msqtUuf5aP/PTNf28OL4npb/AQ/wCUhR/En+Ih/wABCv8AGiPoA0eUvyFXs3TR/MJUxWYiddYQQYhHbO4R3KnmiNWQZrycx3RGb6llqcChcEKwBptWmNHoehJRUK6JgusR7mUf1c4EYWKY31CtSsZCHEScyvghholLVqDnVMq4iGaJfpygblrn0LGBrFUKzBhMD61cSwBs3TF2TKq6AjtQoaM8xWeV0tcSnJejf9SrkoBSHjA33Ga4B05mWdyXxtfvcov0Ac+h2PMeni7WBKnx+TBhDcIqK4lIDeUoCPYlGhvTcuIpgzqDOdg/DtLWsyzRYoinKZIrpQR95Pc38xpf4n3GE39Wv2hxeVBD6D0/N9NPqguCj01LgwgcS/QReH9li5YDdGD4RgCYG2JFEXI/EAKKTEFCylcSyFAoe0ozZcPkgUlBLjTSirxDEBC4LqnzGPlvhO47P5ukT/VMr7Wo8oo9o/8AEiapRT3WLxNLF/7kDcfNGoUNmHkuQ0F5GOrz0s3+HYy9yLyglr8y8Uz5lgXnMAAtM4bDpQrqFjXwng+E9n4j4/iCabR74huSyf8AkLGS5JwQZQtFGEt4w3wdS4Fml59oLjdLAIWZoSusyhIcDeoBbqFeYB3Lfq+X+IYYj6BqXgOZXvcRGgjOILBOKeZe4EY16boKjBgbKp67lxRRmUjk6jqGHglMmT0hXL9lNMyxjug1B5So8nT2ufcYM29WZPDGRUHQ8RPTaDMPU8xYPd9GnpZLlw9BcXEGMU7U/dla4QaDB9iUeqw0ZiFDu3NxIvaqV58yhtoIZUlQbqLs2MOtCBLMU7941xqHX0IKQMkGlCdwl92IdWdwauq3AGlT6RbUdqyw2wX5j3RRlX6DAfvSJnEuyk5moU2QX3CqwzVMz7kKD2jkq5lVwZlUykKJRr0q9RMC7tNVLY5Bk04Ix04PNQULRYqmIQVt0n2gOcAi3zmaAUi7UGZkUMir4YyLq1Fb/wCz8ASjEbt48rccuD6MlcSxfaK62bh5oCWywWb6jqMoy0hsAgQZBnzDPZ2mQBVTSLGrilB3Iio0KsYpCZ95qzRZdXPvsI8+imVEop8GRjuDMw9X2fpl7LAoj6O/W5pLlWXHBL+7fmbFeZ2aB4hY9DAuJZylrBSA65ouCC+IzshaZ2DmWqHgj3LdLigDZNAxvzHBSLoMcfYjuGUHuYYoUh07lso+CVES+L3jAzAx6fpuiIG4JggSyPtDwYV2jsEypuYP2lFGCreJmFPoxZuDlobqFolaiWVNq0ypscPumC3AYMVUQQjm78XqUcBXxki2rYp7VB070XXUrhVu0eLgVlqd+YYyMRz/ANliyx2sPTBDcoKyojGzQCwPv6BGKQz4ltzKuu7mGyapIyDq6gCjbxLyxPaOurcpgtpMcIUb1CnmOa2xma+HR6HD5gfSQsjK9BQLWZ08MDX2ZU25GVEgYHoDMx9iXRPgfRS5fqXPOMygY9oNNdOvmA1FdFVcaGULNWF/iUwwwKAEtKWK8sqpsMOmCLFO0wEYdPEWcwSDfJafLAYVPqS0EySiOYpEjKGyztY+xCDlMAZbuW5i7EwywRdkXSJ1plzQ+kpHMdEat+CAFUB2H3m4/WlXkHZcW11wCDeYVYIeKEf1xBXsQzOmv5jts3AiRpl6MZOFZBPBeB2fpCjIC6vTCpVF0W59oiCwKHzLN7IQpTC1aXfGIVQcgrU0CaUl9xRPpbjf39Il+hWTJITSzUahhs9ppQLKhUy9QDqM0xQIEtPMH7gB7x3xvJjyY5kabCt8QaEoZigoGmZmJQ1AA7WSmWwq4aiSi/VSDkUCiPDMsZdOOId+ZSGyPTAVg/ov/wBFYn2/ooPxFwRc+hElQxBjmDFn2zHN7mLqAAAx9ps4YqMV2jcWX0ieO4nk8VpiHRwKMV3V3GAdRFDSJm7gPfzMbqsSvq156hfK0bYyS2A9DBCbPaapfoPQUlLZ0w6hboiU1przGFieGYmYwpcKSphbQqZIPhZ9nMnEdwfQFPB6DQlbIE0BHvUsxA2b8PMcgFxleKIBHK5Uy9xZ1LtSuAOcQo2DLWOSOUi101iDFyzlh0PyR0lRS8sshH0NzecmhuIyiiAWTE2FzBrwMQGoIYuh+YOgH9guJkDjtlyXC1pa3E0kdF5ZggsfPcBIAMY0trgiXUME35WOy2ts2MNdIXLTg10SwnlHgAht79Scoej+H02fDOIehuX6AFdQ8V9ZebfmJGQmHVT+IglcssJHKH5ZwULkyJqHV1cqeA3S4LiAX2X5joBmcgHMNFW4gWltZsZtI4IyZxC1dwAbD5MUpxATRLGTwdwKK9agRlRI4xK2LfMe1Y4dxSroiwblCp5gt+xMl5RUniELm5zLqXeU49EUAAsDD3AShNYeioxq8Au7x/2DycOmIsbdJ7RADsZO+JgnhSPiWWoBSddRVlMEeDB/Px6C7YFxlwIaYMIl0RvYqVUJRiBVoA2uiAkFR2qG6i36rh8QF3pQgcxHVxfdmLdpAwdsuKA1XcYaB5l9RdXGDwzgH5CkC9SxlrQgXEE22uIcb7RZQNh5y69ScoQYqncd+0wWQU+huA2TUptcdxNkc5Z3U0WX8Qk027P5WYtFwQANXCDAZ0DUzESXlg8EzcnIj2hBLcsuEUvJcbBtdcwGYrMNpRMetpdl+XicLO07x58zcDMrQ5fUKj/4upg4WxAXpyRWQAL3HYDEA+g336KiXEG5cNdClzlDL2GVbYKqWtZwNRhAwHFZ8TGtiFU4zqIOC2BXtmNAbaS47kAbXx+kTmxR2kNKgt3xGET9CMRYhBoi36HJA9K6IKDFsG4OHnBYDEAIyWF+JVAAAGqlASnGZgF2V17SwEDB4jYlDLSUFpfxMVVCFyvc9JzDYV+XmXOppHMeXkmAhUzUfMqZGctZOtQnbI3eo5igxY7huORVCLizWDEOkcpcsaehwXns8zHTMK8QxW5ajEKsWuO4N19kOI7ZHXRFN++JmJU3FCiPZlZb7zxFFvckdAXkV8QJBlVB0wTUyZteDHoHo+tyrCWZZZEocoVcsomNy7m3oSpHtKFgQlgKiyFEdYcj4so3MtuhzGoAFq0/EqyYNXliFrGYpIJvWGcXMwsOC6DMdHLUFMKwR3AQpwIqlbXmL6GkBvHobhb9CxUG5c2vZ1ETpHRVMyBVMBArS2KcSpVgKlYlKE4gl4uVwR4vklt3rxqJYtVVfbGNo8XFgMVVDAgbl36Z4rsXxMoHP1AjLR6UwiMEmh4r/wAEGcemIhDelL5iODCNwHLMMB1wF7YZetRbclOJbplr2ivMVSqEmdjuVeY95hXGeYyIvDNiob00XHZ5ZlJUzMU7ZSQgMTJjGX19KIhGUHz6v/iggu0MEs6mPeURGZBNj/UWZmlYpY69iJJwqurzDlxfYxS+GAzfpM5eBMYJzNyp3EXhVe9f1CmWENMLdyleSYMu8WY3MCwTLcALaZswVEIGdPmWICscnPERXRi6XR8fmPn0EfQlMjNWw53CAdEUZ2CKeWJitJ4XM3w3l3AZBBzq+5R6IO1zQQYIsIMCswXaY8BjXRBwX4cywENXBEtgmXKL3FTeMM9RAJpLlBbggcRYsshoR43O2TURj6/j1N+hLxFIYm0tSzzKmZj/AIMFF/BBLBosmWD2q46DHKxSS+ExFrSLTHs9orQ8jV+Ts9IsHkejllBGVpdsurMn9Rh1zZ9JbZQQW9rZzCW5WIcSvUhmex64QaZhqP8A4fRLfQ6lQbGDb1XiIyYd+6XrHBLTn5zMPlFU6xWGnxGAgoWcWLxDu3AV6uCs8M/S2pQblt8f3SkG4NZmAXT3uCgtL8oNApXJxEIKtjOZQkStEhNpVhwlFqNbqokA2VWqMH2i9HHrWnW2IdC1EITTuM4Ufl+sbaVhPZZVoQqC68TJFdiUIB4OT2YeHzar9pUE1EF1Mg7IDiUglYdZGseIYCrVPMyKILoxBHJmd0QO3mwcEFOAo7VLMBwDvzAbG4xoCa+PUc+hHXq8v37gYmkpJmfXl8G4PqkTVXb5LroqKkET3tpeaNQMY4jC1k4UfiKlpjCYs4zmWrN/RP5i5p9HeJQ/XCSnswvUIrYcxaTGvLvLKC5xBKlenVi59oAFGjHoqWw3bywj6KppFqXOZUUsx5ZhDLZ7QkJOJWo8YigviGwvlmH0oQ5la+IamZh+fpL9WDm5ShzM2guz4jN95Ab0HtHYm+hrgfmaKIZfniGbbsOyF2aRjPMVgWw3fcUDlBsY5ZGIoWtDw7+0/PcxbhuLfrcxa4MHO/bheX6FsCkBF0FH8SrWlocZcxLQyiHMsdQ0JdEsTVMapPzV7MtqbFbHwysJRhGxmcQpPCZrdSluhpI9hhV6VV1LaHMPQ6FEl4DqqqUh4xSNNQ9kWOqIVS2U2nAIZ9Az68ev0X93NJyhEisae/uiLnUcSqeGW4fKi2u3lYzZsk0Y33tmYjPcX/TBkpyazHe6pxzXtFvfCGYgUcMOXgh16SS6jK6XHtKoI6jCejlLwTn0Vj5wK9OPRRYlFvMPRTmGCOVMDyQanR4m9YRSxV1PxM+WkA+RJCqlbQ43Me7qyVwKAw1FQPlQ5A0LS1TxvdEMjGUgqyRgtm6q+NwC9jln8QoqPcgLLmtamV237hVQE9+c5Y1/6x+qYGUCKXVlMSzRpwlGdfCK7YSGcLUG4GSuCac9RtWlRwb0wEas99wjkGcwezxBzfjJfylGwHY3LiBUAFl0y0OGV7ZQoK3GDKMYEqady0UluSDRECwyzQhFWESoXYe8Bac/aBP8EZc18S7j8QbXxSgCk8Rrr4IaTgrERkU9oayWn1ZnswVK7GMPRhsh4fzEEREIprPvG2zdpXDxqAlRee1P8QqrJO86Gv7mCpShVZKyxGKldRklJbBqJeZxhAVCEZUSFgG3BO2Az7wjTLA2u2DF69VzNI/dQRVHpLPoZGDDcCKYpouU4nwoCVTi1wKw0XAvUvQwQ6jCRwIU6jId3wxjPxQWq3xNy7LczBKi351b8zCtnSBNuGLp4xCA5NvENppfXcQXoBeF8S7ELroDiP1kfN/9ASOoCq1N2cpbxGD3tFgtbCF0aOyAohO6nAvuQDmx8kwDTBmMPcNqudjAFRjMWOlSRBaWy8RneW02xVVi8qhkTUHCPccViIZgjAfEq4CbEjjI+kBEWvxLMV2Y6lwRqFCqly7A+8FUFXLFwYqW5jBltjcLOy6hSc0j5Fn8kpVxMscHcYIoLVl1XD7QgQ9ELa1nA+8ejFxYfHtHTg+oGgifwZOiVqRwxI5TBGhKg0Lmr/yyt+RPeEdp6iMWKOorHoWICNrEMMxQ1L9b4gzKw54FaWKbwgw6C1wUwVsgxJ0+Yg2ffFtJdbiB/LFqGi4GvwwjCDzA5uHSYhatYCAuQxmqitKt5YjwuqC+YSIc9axKfiAbBubRigVZt9o7UAOPXEWcxYlxO25LgAFBABAUFo8yhOvMKrxZZtUWsZjJRTFDUqFkPVdJFZfqi2ga1I8olFk93vFq50qi9+ZxwXWXcuD2EoIrxBXucU1BcsAlac/2gVEvDzAUrCNxTglGEbIAVQeFQ8ZeNS4QDjKpgByrxL8VscQErDURyaRddv0jbGBKRviZVAjw6FyEU5u4Ngyr9OIjQHqOvalk0jC9pYPNEGoNwe5foksHao9vRaTNrdsuPpcU3CP507JgjlxKZUWoWoaw3LdfCUmgljiOQiAmj5lOqqVLfsTu+ON95zxMh+CGgmeo7zi2oG1hlfNwIgzoJiCwGpuLsYnNs6YFgHYcu1+WPogO0p9dy/QLZQfsfrCA64Ht5gJ3W3tg5i5DeYJAZW3Ud6G2oMGYElWP3i104YArkBV1w+JWTJQd8VLBwG8M1EwMr5XDrKVpirxGnN2u4kWumFm5Yh3CbcwaYixmcetVDgF9IbmYNq5hFSIrLLmEii0Qep6qPllnAgWspc3+chmAvgGTgXbLNiH46IjVH5gYVwQD+Y6fy/MCIEHXoaFwB9oraEyV3MIOJavDBtOVb9FXoUGaOzUETh6ahzL9VmXFjFufFwaJaztGLYGYGYXQqOydEX0KLFjmMHMd+/Hq7lBYsNI4ZlcK4DmLYtZCP4uKhiAThlbgX3nB94kSuTy+ttU+oN6bPsT6OD2hMVTQQWQ7HXiEsJgsIU+sQJyrEqJcpVrzFAwXEcwgDPcMhWViosbkzK8wSblRxDOgjBvo/M4EXUdS2YNtTnIgXQ+zH/ZOz7oiyspFxwDa7mLL9Saw+hHCrMPCo0G7juVVpPy49oA0sCglpVYAXFt7yGCywSmEbT6y4C0A+sMRRAYLmibCFdsFhBj0zK3SAuJfhdC+0DBl40ILDRFUVktPSmly4QgsufWU+xOYqL6is9pcpGFlx1GCJi4qBAly7h2lHUQqXIbS+TuYxfoXFiivpcVkot7lcncsKLbHbKbYbDd4mITYbeDn8wQQo/ZMRaURO+OP7j6VyLL6ZmY3C1aOPUZ2kKIW7mVwZavHmBTMR3iGGJW0gx5xPbocvQv0KIUhZfZ9MRMjqWK7IPEBSYyIDuwfIiTRFF40wK3ZWNR7n4lOF8RloUOZYqEHAgeMYJabiWRYukSbJSC8mGXQo2eiG7IEvw/olgbl3E1vHce7WBfsRR1cq8va8uoYAAGSknHhjNXjMJ8m44GMTeP9ZtG/WNNlbjisNJsI2d1fERFXApncUeJYo0ehDUPS5GqD3Zc0W8IKAj6LLlxcel0TH9lSzWIId+oidRLuZxZNmMYwviYRuvUhxFXuzEtWmiSt3QIVUTSAOc7IgVNBSXic8ma88xrJdvwMHrdqyidDL96jv0I1rhtjuHMfxAIUGKJcHEOEFEuE4WMCdWgym8iVNgSo5EWnxHRzw9RA4Tn8D3lHXCjxMKpMKIoqyg8jcwdEyVEGJ5Klhv4op/gjb+iO2YaKKcVJaQm89zSIVY9BcBK3HS8H9ykwhKSr813LUtW9+8zEHkyz4NKYCUKhZW6gfIkM+geIfijLAY1sj++6wmvDBcrFhCyJkOggDM/EupZuGvQkouYykd0TT0PUSjyb4x6G9xr0ZeZtD/w8RaPLEI9UtVOvWpUbRUTKDGKV9BMRZiIAxFtTH3o1KXbG7hlgs7VfHURQNOFqILSEO3dfS4yV9GAFq0EID+V2vz60ARJMthAAAtvcUsZglSwpDonT8MOhqCMHVZjRCFGnUqRZMShmCUFxwTiO6B08CcTDT+IBhnsvPcXcu/IJ1dDklyziKar0AMxi3kxBVaYH8zLunL5i5BfEreONlAY5a0PuTLom6mICyzbh+puYRiMdQXlvEwkHiGmuKptwPLUsafCsVxzKnhwZPeMTeNMANwbsIBpbhAcHc50rGGVhwAhqtIJhMxDAYhsPMVMsCOvcPWehOGpVmKF+8eA2w0ei5jHf/ksiboMMchEV6lo3MmJtO6HPiO0lk09CKixhUW4cWMSmpTVQrNjdRwMEKeuoFhsPYQGus3j/ACnMqHQxDvlNH1ajOlq2vfrbZxMLln1YvE0xFpO6E4IBDhi5S07R0lJhCtDEpSjKAHAZdMOkE9DKOI+vhJ35g/I3Nch1EoFv6eICZBE6ZdRHlIcq/SP2YV5T6w5R9GDbIwGkYgtcYZtE978JRWRxLVwlgWtxCVvCyZoMZeXMqoqsGyuIu9lZipbqVA5XFe0Fl6RSCjQPYLgC5Nqx5zPKjuBhdE5WZgArDY1cEMBKj9FFLEPJBh/BDcKzUGWqLBAUIKW9FRDuR/cdszm8Yejgi5inMZcWLNZUzK1eIhpyhlg/WJEZZYcmVOJfuCQWMp6nDUCbEDwzyGPe+J50S2MYRqMAvEAQ0ku4CxFHEdEEteALqNG23sOCG/RV9k/a+X8RL9AtlDOAIeDwteY7VOaj5QqNcRY6joJUamC4BuUxopMwbVlp8zQ8wspgsjYxZRglpojxKbiKfzMa6rz7zCIjMKQcTXoteZpiAYMIwh4ybPswF10Lluiy37Ruo26jluSVAz5YCqhxmHpkAcQC7rtdksGDz2xFU+phmFxKNSE+jiKMqEMMs0UPaF1kmCQJBwltw9A75TFYRilvFp9xUlR8NcF9iPNoPSjiXoWP8sDlKxECO3LEi9Fxal+i3MPS5eZdAZlwr6XLx8bKACnNzXCAdRhjLZhVtOonV4QtAIQ8Shwk4qoXAOMImHBaBc0gCz5KwygVzsaNS6NU2G4F1Lt1qUlLBGmVgzeVcv3qO1AbjkbWiM7KAvB/2/RjEcsql/IzMFohqPZiUeyEchiixZmvQspMGUe2zPqAY7bkxKHkekIxN6oH5gtBwzY5SNYgxxljYyljTzL9xzQV6CONF7OfibSOTl7xMCgUAUBHMF1MUsa8wM8xLVuRigGnCUVwc3MQMBBqFqXAsqPCSyj8PaYHtGrq7Uegb0MH1mMbTYwdRAKUblmQoyxcRoFQyxrqOqtOYM0QQFGnqg/mU7nBds7gtx6jiAH0wEoOEt4MblSxoSl5WKjbt6NnKwIBKCrPpPOacKe08IaYj6n1Y48xExDN6qAAn2l1Mb59YqVizrM6B7Rxt0WAfcodoXbpgtkJ4lKsWMuZRmmVzAl0IoTfB4iKwTIApMkwPAHNkYU7+nMP07zjQsrrmCeGhh8y1oXw7+8PRIKpNMc7jr0NerRBwW24VKcMMxmzmOduY1+3A0xGXIFlyHuKWPlkRV4LMMVdhC05Jgl5los1HFVZA1VIt/xEKOAkeh17TDHCz3iGFppF4bj0F8rYY0pdCl8y6KKpfUFsrHCYr43HGtiJUwaSEgEptoCWg6tuWIqi5dQ4mXK0uXojr1JC6HNeIHTT513K3YbxJNY3gq4Ai4A6lOYXPiOuJnJaLPa9AgQsZDGiliNPDmIglNWr0fE2R3d78rCqxoVFY1woS/Yf+RKfYPuLPD2UrHzSCVhyZPZmRoN3HhjqMWLFxG0xFWZeyXPHqU3QX1LisuAHPoDupaWfEwZfkloIDkZzDl6S8+gDtcBFnJXQm0Q8LlSvmpeh7gMKXr/lKwwJtuGlXFFKqNAJoLUG8LARZmCt7hW456tg7WqCMHakvKuYEphE9BAVdtxmYTzG4hlLu58ROi2irohqOosG2IlIrgZl4sjxL05IGturzChCyVs5YAiBUoVCgYzHvAksU37TeyYUMomSm8SusVFmKih9iVE5QsVt0L7Tq2zMRxG4VqUf22dTEOuYG0dQy+0bohA1vqh+euX8SlInJcvy9eyC3UGi6XTgi7iN1XOQgkRnckWAoEAg5fv3Lm8MVMpbhPdM0hHsiYiA8C38xAIgtCiFylKyXYW6RYXTr5IpuosYgF5vMcNEv2jzJaXQ6+sKha7MozlKobgP2Ob6e4FmRoMvgTuoruIcs5hc8EAcQOIMaiYlyMGx+kc87m4Ko8CckzXw7jlWRDhMkyl8wnKOm8v+45ZfgP5iQUfQg/48DC7DqNMn1RoQyeWVVZ5uIYfijVDI7hoCw48GCbYUIrQubTT0qJLgAFPLLvl3FYGuEijfFywVRUApYKm5TmOosMEOZQXHXmwxxbmGQDVVmBs0xV4l0XnMG8N90S6C83LbG5guwIVVZqkiC3RF4iyj2mVqqYc3GDTLCaFAyrLSRFjH64lEN8cY1mLqaitHui0meJXiFVszxO+8ZhczYY8EAQZovkl1jAHhUZKGXg40kWe2lzqVa2G4NVkYI3H8sPfjZFn0lw8QWZV7EzGtELCxfvqXCVQNZIYCOWAU6bQuocAb2I/Bxq4zLNiKtt8xpirf8R1awjkUexCRYNKiA+Qs/EJ8wgwnAiOgdP1mX/gZvUDcQV7gz6UEYVqWuOglketodRrzMm5aG4Nu8PMQItgLwJHLb5HsiROygNr12y2rquhglzcqFjYxJiegkNmr8wq2yqQWYWuCMo2FwxtG1kgYo7WMrxE86mCoot5juHLSiIre25cWpX2kEdcJokXMQorU1de+4IUtxuCm2ZiDqaUwwzO0VPP25SrqMiRW2rcwwPawS+AeT9OoYA9rthVlUKlnB+xMaG1sz+I429riqcwVJovGZSCF6IyzoDa7leqL8jrxKfQKz1AMSiheoCnho1uUqaLE6uMWNFPoOEwW46FCM2XEqGoCdJmFFjMtazX1JdsBZDQL50uB+MHO3EaWEd3Ls11DyXBARAAGIdRf0m3JctjRUDV5lnvEAr9MQoRfsBLlwYxmhlLmMsbhhM47PS2xNntGIkRcYW1pxcwLzAKShKGOpTV25FTACYB2EfmIgP8AbTdu/t+Y78pV5TwlkhZ1GpiTcdLQbfaUIGiA5SxQ7CFzZbnsqEwhfUVphZZZgpAAKpeI/Ul3ElLy+ZoI4FrMksI0jGQACkYHCV0PRGhdOVzACo8GAUIN5l0RGOEbCNRgbjH9i8Xd1+IEUV5/1AmrffCvyf8AUC/txYr58S/z/wCoCIazSmEEe+JYG9j/AKlGt7r+oai+6woyfqgFX9hf1GnCpfH2g+k6v/URV86LF7mh4jySeQ4GXqVZN8CgkMCAAH8x8hy0ZRjij3yh+/n9RPMVsWHxK+1rylc+Sibab3/qFzDQVEKRrZlYxSrD22VVI92CwnbUCo+nD1qPM5sEzQxkpVSp3AW3Y2cRCdqnSbaqH0UedBj4Ye6EPa/RcYTCkpKvMpYG6WDaSBUVy2RGFJRFXA1ArcJr5pytwdwx54ylmC1q1mZ4ght8FkSO37amRuWkvqzy/bEoSBRUGm4yLtyxitqVASgMFpaYqZmhU9jCy3LkWoIrKPsFQKuBVSlsYC0t0HbUIMpQENpnUsmF5Ye2rZWbcws9HhpmKIF1k0+5TDWJnFjVvbPxF3AEuz+BiV63Pt4GcRzAAcqintrByn9ytsL4iDF3gATYGuZWa88VawfVD9AcmvFdkoLx/GwamKGQps+kSyExhbo94lub8LRWH1o+sFdKDT+iNCwD1WLD4zGEU7dlp9pT9BlkOn2jBdNiqzv2gVYG2RLPtAT3dWVrfxHTQLQDS+0wwqKmBY8vUoV+deHv4l6CoW6hzRuAXcTli2/B8ygrUcnp7yzgwdW9Ef4J+E2ntHIEbLHcVQXQQWXWK+Yq+izV3i/AscgSDoro+sCrAvJql5yQ4TV8tU/VgmPjmDQ+YAclaj+SZ3lDS+XxLFUgtHdxvkuCUCletwgqCMxDk8QQxxVYS16pi8oUG7aP5m5vwltL1c3xocou3xUEqs9fLT7RWFBGgdXCIII8s6+YS3vE3HwRm97sFNkZgFVn5xKBFzXo6ixcR3FdS5i5zRjtjLWLgLkYvJG0AqwBzAaWpSos99JwxmKjLUAcj9Ihy+JT1Fck249EwVyqbnKGcx7oRvbNvKzIsYwksUdD/v4ixoR2uDVyAExHVZTHJcbV8JgMoo3crCzBoJQwgrAhoKIEOZJlcWdRDRUueSwt1kbJLfswOIWLdLE3X8RqPUQCx2tV9IOw5hCw0+wx9x+83qv0uIMLGOiGeoC0Lrgu6EuqTEK2UriIpuSFRwa4gBl995TrxiJerPgoVN8RYKIO11kir9jEPrv+A8RzbgYRCmXbbC8KfzHNstpbuXFrlqX0TDAhKrm7F3DKrZnQy10F1niXIjrgOqh1bOI7UTc3ZQ+0QRugsFzfK8wyaLBEbvIdCRuKLctB0zbS76gPuYaCqJmnzq47u9wFqU4xcLsApWHIc3WKlFgxqB435ITtVsSFjYKVzGLu+/IBbZdxTLUFKUWYxFxPWbaF7TqIfGEYWB50wBdIEOUu2jTZncN5lBpJyzVlidx4a2mzpXRVSkJJRTUjzcXd/wBl2tF95svqZeXMXXSBi7lNeRwKmocWZVO/kK6karl7QUx6V2MNZ+sBcDWIUMOw/MQuoLKww4wwFDIwsKHxMb1IoEDXxcojgoAa5GQHJUVFGUuivbIx/wAamBeh+ITUe2EjOFVXcWFCpFgXasNQLbqdCnkW2bi2FAihKvJbU36Maaw/OM3g/qNw16LEWRI+INzAPJEW6jVkJzAmsGgIKz8uAfiCEFvO+nUKuAPsSqsiz2vEMNgB9/6lhp8Swy/0nZ8c3R+k/rKMsoe0O0BmoBxxKb1iG4KBMxTG1hKLD7QRdykGOAINEAWyHVYWAjgt0Yzk2agfMx7Y7YaKfvi7hzYq+5797ggOpFXD9PEMjAaidwyu7qICnHpBdIS3/wCIgggPSij/AGI/2PRA8kj/AEo/2Ibkohumt+81hg0E/wBZn+kz/UZ/vM/3mf6zMP8AMxQRYcZuHmLGAJ/osf8AoM/2mftM/SYpHizQ9LB1kIt2Yn+uxDv92f77P99mVwFlmzT7z95iP/efvMIyWwjMOlR0E/1GfvM/WZ+8z95n6zP3mD6+9P3GL3a7BDqUH87P9Vnd87FAqiFuRR9WYtrxI7Ad6gRSJSuFcW/EtXcW8s96Wa8pkqA+VkI4AC7d/aNh9OR6ZNHcCyRrUzqOzMNQ+oOiMa01FcAQ6Rj703HWItSFQPAj6zKyhoXjPwWuYvzgKm2mww5jGjDWo37xOdEOS0u5JTwYtudto9M74fURuYEdN+1YxJlBzENu/MqSJ2qj9RyFZJS8VDhjcpujsyUBmYyvZyZDVTI9S5Q7betVP07+IZSdBn8RekVFbRM1P1Y3Pxkf2womGrpvxq4CMQyYhb8zIE/sKln4gs9IsXVLruILqVC0WqHuJaaxVPQj/Xgodlveb+IDLydh/UQHt3CpeVBALnmv+CpW2RwvScd+ZSwT/uPeV1XHXHaxMeE/m7xwwVpBCkFqjVoXLn7uBzQUQr+EVLK+JaKgfEp8I7XthaBv8RMjiMFpYVtloiwclVX3gHLDkPR4ZSMkNn9kuFqXwfFdxlgZWgYr6wLvt8mH4SYI4EWyxrsSsPergrhpuiCY0thFOQrXmNebolmk519owcYXnTfgph9hFGkTThgXgYMHp6Y9q06wLi2i8/Q5RnjESfhumrngByzlv+JezmgUtDFeGAY6znZk9kgPKCHaqZmUcOH2xmY0KQIFVa94qnGxhVKjFWz210wHfBWo5PC8ThR3x7MEtktU4PaHe5WgRUoDKVuq+Y952wqNv2EM5qm0rDzTK6yUxpF1X1lF7pg5Te9viYhwnpDlfBVwgg4qXpINIGFK0R9yPpDQiF2fUT6xYJie+k/tNFEbiHFhBlNAFIlOM6gUjr1UcKS0KlAIxHnGB6lzRsdQXwxCyzUVm6gCy7K+IhtttQ7o0X4hXoEcghSPiOdFG/VUVO7syBhL4I08JWdlKGhTmLKq28y3lYhyy+zEOU8qeVCG87qypWOoyOGgOlyfaViDEVg2fjwVG1blkJLjW903uCFkcwJKMndMNsFUm4nsRKy3qH/BIbIbJS+0R63Rd01cySZ0EbvTQUPqIwDck8jfEDbMqwJcew/EWoVIEWBe9kCEyYZeLdG6q06gtG6qIFeyH1jK3B1AMPI/KYxre8QPnP1jaaCygj0Vhiy26HBFPepUsnV26sHkbu4Seve0UafqMeAULStOvkg0abpsb1zFXHEwdSV9R9ICuBSA2W71UUsKw84p9RCzlgOS3zV+IGtIdqYFYzdaVBGn3ELG8tWmSevM881UF0/T8wZoETWQUfX8xQsINwbsrEEEdCwU5+vwiYrLXqhz4pRQfz+nNb9n6QlxEKKoB4qK6GxtUqEygBDKVeR+UIXuOqOYOp9kCL0ZwkGEVUl03D9EJyNRZdvKuAlh4lClWwa1V+IeMamiuyD7hKiymFdp+PrGVPQffH2PpCPNlqBUl8FoSAEm4L+pAoGNxE0s8wGdgVoWy/BDo4MLkyM+RjdBIb2s1zsZaRWJbKLO+/pFPMGMCa8sZ+hPFOIV/wCkMrfhaifcQ8+igoteynxLO2xeVoPsgGmCqFUPI/KC0hng00+595fl/wB2wolb3KHas4Xk1i2DMNM2b17wlV01YtVvR9o3ZdFgFPbqoQlJEICla0XzOT2+rutUReYhDrP3AvSTqB6OV9oxJ+Ckdu/IH7MYv3RfzPcoUjI06wqVjfUIXbIGyzpKlNeEffcRsK1U8oI4DzB03viYIMQaAj2SjpFwxF6W7ncSYECZMh9sIqzOMw5SXyxqj6GJ8OZ1H2/G/wC51/nAK/WnqFuojWcZn67l3oto2/MFsDQuHB46IeLF/u1A2wmHhV33OzR7XdR2mj9C365lw7W47e+rgR5NcgFHMHkXckNBpGLFhpoKAAOsRrxPYrBXnE2YqL8sJBDcfcuUirTNPfuNzHl/8iq15AZZ2ERxq77j5TOF2tomodpNA97MvrINm10xyYt+AvqDFVgaIXbzojwRvFSCazYSlbvuK6lnFM16o5DpOSVa9dKuHPc7KBea2vMCc6YUpVnXHxMND00O3cMNtmpFYpy6iKsJ9BZBYNFDRRRRxL8yCjhVZbzo+IFNIB9RDXdVuAdBwQkO6EFOJpLBqLW2pkaC198DqZEQB3eFCIvG5GK67+rCCOpRVpczCCZsxVYeq/MuyqgtLhIc2StI0cZwYQos/uAjj2YfTtbAW7r6p+cCzAZxaU68VIQmJLW7p+HxEK2Iliyra3iOZbBMS1tF78w2B8Wd8dbhF2u0GqftAI0MFDFAHEcjGFEADfLRLsqwUStVsJWQlABS9HigHgo/MEAwBYtifES1rYlacKlB24XsZir7rrPJ8y1VSvVFruB9YVNkGLkNNSrYXdgaF+7EpaiYpjuLLzMu5nJPGbn1ggZij3Xw+0uAPCMVQJcWzJVRdu5jZlnJzcLjiIzMgcrxBNAteJvLMeIaiCgH0gu/kz/Yy6jZVdB2wQs/qt8wNFXY+JqCKyBE55IumCs21nC6n+1n+xjV/JhaCygtQRNwcoS2j3hX8sMHuVif4mf4GIH8CLrKwHsTTgEN2ARIKAQuxZcQU1XJdEW/oTD/AAJT/Qj/AMzFRa4NWWz8ROKUhgOSf4Sf5ae9eyZub2R/5SNfLx0hYEGjQoNuax8wZAAYaYn/AFJR/XgqiOmqtX4gG/jRH+hM/wDCi/8AQn+En/Hp/lI1Z+DPePZP8hP8RP8AETFsPZP+ITb+BP8AET85pCmeVUtaIHXwJ/lp/mI/8FP8tL/60V38CH/CR/42f5WJgnCixy1NSCKWk/y0/wAVP8VP8VP8VP8AFT/FRO1voGSbtRXgqsVo4gokLuCnHl5jth2MRjFqq1Hq47uLEcywiFwoTXyuDmqcVD+qk82b+NRwm+CNq3RtF2udS9bcRXs5YjGY5wHyxODTjAdBN7ipMW4/ZdJVehVGStQaBkXbRFBNoduiL66intlPJQi9sOOwABcPeXiWegHZw9qlb7SAmcM4zKAU0nwuaHFEZ6YiBjaTbbxLM3YBbCqs2XiOtGDCULlu1SY9mQDUbv8AnzLv3QMEXk3mYBQeSJkOz2xhgMQti8IU9XEP5rxV7itlYiK8DMXbb494LKSUENtNjuCuEhGPnqtRNCgmTdPnq5WgUJBOTRfcWoLQUFq+mJQXV2AVMuA2NVh4xvMAWGiyDOhnmLrLgOZU6bxcQXCEUpUK80NBWprbe7gmxeACuUct5hXGwTIVN+V3GBF0Xe58JaZl9LS7yYxq5kneCF3YjHEeSphWrmzY41FVBj0NVctZuMeQ4lMVctZuONYDC5wDk3CjlJ1TIWM1axXEWhh41+Jm9/hQMYe8FUFYCyUbGTD6palZ7EIRXNZKot1HkEKCDKW47mJrOKDGYNkqBjQtNqmbjDlOaNbgrkFGQgrtipfDpAUCm1aVZ5sKNZ8o8xBwwow4q5q7uaZokUVlVvWblKo11Feq5t3uFjbvYlDmE7gSM0stOIhUdUNze7ZzE4e/MgOTLEGaIunS143LerqggENVcsJYQWdyQiRlVop+hXUGWb2i0MZM8PUGwugRr036FRPEqfRi1Ll+ra/PHZD+KNCxBQb/ALEOlcgcg9C7l6uI7W/INr7auG0qg6cp2sCEYQuuv7Tg5o3ELnIQFFC4TZPESYMmpQ4CmBY4h5Wj8wrNblACMY2sOGFsrqsXP0XP2XBiITkWZ5JpRqGyMDLQsYqraUW8R/EI3xB5HAjFD7lMOfkf1On5UsDLFstVVLVnmQ19pXkcr7cQaTrLIAx8Tb7/AJT7TZXyVPtBdJtXS7cS1PUraxriagNkfC8SyCZCn2YiRrGzZ+IeA6QRPiUFLyFdtR9YxlYcrjeIi6YqprWMRQpLJUveohoVsqXeobINJA+0uGAYRfVrcfu7FdnvCXRNi33jEVXnKi4JjzEZUVZX8Qxs0gofEdPsCqGupgHqmj9pfkg2hnePMaRygQH4TegHWPrDLcc38qmHHCItgnLVzFnFXT61OBnXk41nHUMBtzAsd8QRRtVrOhjUQdjxAL7S9vG7WNx0AdqNMvtU3lG/4kzWNMraspiDxwVk/hFNkqTV/SCCESVcKziFB/VofaAKsNUjSFRIYOli+tQS4ptLw2Ybq5ooM/yVEHo4eXvUBFlqr9krEPbYV9Jv7Y4vrURKopF5gZpKcB04gYarAJvOIpaQdgPGowfLVm/icS9yUs/IkZzT7/6l/wDbn+pn+r/qW+l6yqEoUWXYH7cxXCV2W3L/AHtREMDH0ligeMpmEsdpnCPDMR+v6XzC3L0qZP1WZn9OIvtfOTyhgrlqJgrDaKae0wEdtqZcL6zLEZOGV02GJVGr+t/kSECXfUERip0Mv2IZVAAdECBUAmIVa099sKARVAmqmHcUPvq4PdHuFizMJgXO4luVA2OvRjLmUI0StBvmU7q5YWQQE540NCM3dywUzEZzSAGCJDw4sILEnAqU+PyZKlY0VjNbJks0S+iWHVRZSK17EXVtELdRQpfad3gHzcsLUsIiETlEtZilAzGiBk8WHlqH0IlW1WC6ZX6hNvQMWITAnYlZcYzPpoTPcTEqCVKlMz6LMpnlP2qoXAXfiWXG4BES74gI7yJSTqs00/O5dVye2e6JjcqZHEbquIhm8xQThmDJVh0+ssqsZYvLiKrN9tYnDb/H0hCVAhTi4wTCH0UxDgkRmrqC5EEBhAmDTcsg1B+8pyZ4uFKWyB5lII4IqsYmXb3TJe1xMSjnUqR4gqWLIlwjoDGqNMNuhvYguUcZ2XOKX1jrTWlSxbiZgbjK0sIwbXEdkOXcczh+JUy7mMbC6OYCtawZqkuVLtgxAMkNwE1FO4NTdDKVx9ijqLP3ggxA9QpmecMQjH049DevSoEI+rNIxCM3xLHe4vS0+JlINEvEWIwfRnhvIzOH8+DNfNgUggaRNelZmI6IpYUjtYclG9zy/N+owegQesoB5wH8zFRZ5iVPMZ54ZbnzWzZXUiNUh9Ixk1DFUhZ3uARHDRFyi8pYSFHUc6lFEqIDEx6dVCsfJzGmWNfaVPpg9hjvJh5gZjlpAUQYFeC9y3u2GSML85j1pl3F4+0omJmylkC7s/ES290NIP5++CpkMrcz3BSJSLAeGzLscEcS5yqiU2cEdKr+COprefRTKh6c4abmIHr0MUIwbgWQKfUJWIkfRm6LnM95mYnLDoUY9jQ1GWuNm4xqoiseivRm7QVM6vnQ3/ff3GW1tc5j6fcz7R+GO/Rz6OEIayjc0w3/AOpe80T+PoafT+CavpRH4J9tNHvPtJs95qm2azmcvf1Np9349Bsm/wB0eYT92ehmr3mvrA1NX0b78/BOJ97NvQ69CcvTCM2hshDqcwhuO/R9B/5n9km3sn3/AKTT6jNkZtGbM49B/9k=;" vertex="1" parent="1">
          <mxGeometry x="-185" y="168" width="334.96" height="188" as="geometry" />
        </mxCell>
        <mxCell id="dsuRpbHQCwraH_goH_XU-18" value="Rodapé" style="rounded=0;whiteSpace=wrap;html=1;" vertex="1" parent="1">
          <mxGeometry x="-198" y="473" width="636" height="59" as="geometry" />
        </mxCell>
      </root>
    </mxGraphModel>
  </diagram>
</mxfile>
